/* XPM */
static char *result[] = {
/* columns rows colors chars-per-pixel */
"64 64 237 2 ",
"   c #3F231B",
".  c #392825",
"X  c #3D352A",
"o  c #3E3834",
"O  c #47291E",
"+  c #5A391E",
"@  c #442E26",
"#  c #4A2E23",
"$  c #512F23",
"%  c #453424",
"&  c #4B3323",
"*  c #4C3B26",
"=  c #48372B",
"-  c #4C3D2C",
";  c #553324",
":  c #53342C",
">  c #583A28",
",  c #5D3C2B",
"<  c #453B35",
"1  c #593D34",
"2  c #613F26",
"3  c #613C34",
"4  c #4F402F",
"5  c #5E4227",
"6  c #55452C",
"7  c #5C442C",
"8  c #59492F",
"9  c #464031",
"0  c #4C4534",
"q  c #45433A",
"w  c #4A443C",
"e  c #4A493F",
"r  c #544534",
"t  c #5C4534",
"y  c #544935",
"u  c #594A33",
"i  c #524439",
"p  c #5E433E",
"a  c #544B3A",
"s  c #594D3A",
"d  c #5C5438",
"f  c #634227",
"g  c #644429",
"h  c #684929",
"j  c #6B4A2A",
"k  c #76462E",
"l  c #724D2A",
"z  c #77522D",
"x  c #7B582E",
"c  c #664737",
"v  c #6B4334",
"b  c #7B4C34",
"n  c #774D3A",
"m  c #744D3C",
"M  c #635335",
"N  c #6B5433",
"B  c #66533B",
"V  c #6C5C3B",
"C  c #735333",
"Z  c #7C5B33",
"A  c #79533D",
"S  c #725839",
"D  c #7E5E3C",
"F  c #6F603C",
"G  c #73613D",
"H  c #7C6439",
"J  c #7D653B",
"K  c #474843",
"L  c #514C42",
"P  c #5B4A46",
"I  c #5C5A45",
"U  c #55544C",
"Y  c #5B5948",
"T  c #6B4C43",
"R  c #694C47",
"E  c #6B5544",
"W  c #615D42",
"Q  c #6C5C42",
"!  c #685748",
"~  c #635D49",
"^  c #725746",
"/  c #755544",
"(  c #7A5541",
")  c #7C5A43",
"_  c #745B4B",
"`  c #735F52",
"'  c #6D6243",
"]  c #656149",
"[  c #6E6249",
"{  c #736343",
"}  c #7A6443",
"|  c #7C6B44",
" . c #766748",
".. c #74634D",
"X. c #746B4C",
"o. c #7A6C4D",
"O. c #7A744E",
"+. c #6C6552",
"@. c #786553",
"#. c #756C51",
"$. c #7B6C54",
"%. c #7C6B5B",
"&. c #747155",
"*. c #7C7355",
"=. c #797758",
"-. c #7D7559",
";. c #7D7A5A",
":. c #7D6C62",
">. c #7E7761",
",. c #7D7170",
"<. c #844F37",
"1. c #835D34",
"2. c #83523B",
"3. c #8C543B",
"4. c #815B3B",
"5. c #91583F",
"6. c #856136",
"7. c #8B6436",
"8. c #86643A",
"9. c #8A663A",
"0. c #846B3F",
"q. c #8B6A3C",
"w. c #916D3B",
"e. c #8F713E",
"r. c #92723D",
"t. c #835B44",
"y. c #855A44",
"u. c #935C42",
"i. c #836344",
"p. c #856C44",
"a. c #8C6C43",
"s. c #84654A",
"d. c #8D6348",
"f. c #836E4B",
"g. c #8B6D4C",
"h. c #926C43",
"j. c #96674A",
"k. c #9A6A4B",
"l. c #837145",
"z. c #8D7246",
"x. c #887946",
"c. c #85744C",
"v. c #8D764A",
"b. c #87794E",
"n. c #8C7C4C",
"m. c #927244",
"M. c #93744A",
"N. c #98784A",
"B. c #9A7D4D",
"V. c #836351",
"C. c #856955",
"Z. c #8D6B54",
"A. c #956B56",
"S. c #837555",
"D. c #8C7551",
"F. c #857C53",
"G. c #8C7B53",
"H. c #83765B",
"J. c #8B725B",
"K. c #837C5B",
"L. c #8B7D5B",
"P. c #937552",
"I. c #947B53",
"U. c #9A7956",
"Y. c #A27957",
"T. c #846D67",
"R. c #887667",
"E. c #847B64",
"W. c #8C7B64",
"Q. c #987865",
"!. c #9B7D6C",
"~. c #8C7B76",
"^. c #A17F6B",
"/. c #888157",
"(. c #84815C",
"). c #89845B",
"_. c #948454",
"`. c #9D8454",
"'. c #978952",
"]. c #9A8A56",
"[. c #93835D",
"{. c #A0804A",
"}. c #A18554",
"|. c #A28A5A",
" X c #A1925A",
".X c #A3995D",
"XX c #868361",
"oX c #898463",
"OX c #8D8B63",
"+X c #8B846A",
"@X c #8D896B",
"#X c #938363",
"$X c #9B8866",
"%X c #93846A",
"&X c #928C6D",
"*X c #96926C",
"=X c #988877",
"-X c #9B9475",
";X c #A18F64",
":X c #A69567",
">X c #A38C7A",
",X c #A59D74",
"<X c #B6AC6A",
"1X c #ABA175",
"2X c #9B8884",
"3X c #A48D89",
"4X c #A99686",
"5X c #A4958C",
"6X c #AE9C8A",
"7X c #B09D8C",
"8X c #AA9796",
"9X c #AB9B94",
"0X c #A9A683",
"qX c #B1A58C",
"wX c #AEA39B",
"eX c #B3A593",
"rX c #B3A49B",
"tX c #B8AA9E",
"yX c #BBACA4",
"uX c #BDAEAA",
"iX c #BCB1A7",
"pX c #BCB3AA",
"aX c #C1AEA4",
"sX c #C3B6AD",
"dX c #C6B9AE",
"fX c #C8BAAF",
"gX c #C4B7B1",
"hX c #C6BBB2",
"jX c #C9BDB3",
"kX c #CCC1B7",
"lX c #CEC3B9",
"zX c #D1C6BC",
"xX c #D3C9BE",
"cX c #D6CDC2",
"vX c #D9CEC4",
"bX c #D6D0C4",
"nX c #D8D0C4",
/* pixels */
".._ %.H.L.L.L.L.6 #.L.*.S.o.o.o.X.{ ' ' ' ' 8 G { c.|  .| | M n._.x.x.J J J J H z.q.q.q.q.q.5 : I.<XM.M.g.a.P.g.s.i.t.( / / _ _ ",
"^ ` $.$.H.L.#X[.r _ H.H.S.o.o.o.X.' F ' ' ' u {  .| b.J | G d | /.x.x.J 0.J H H l.e.9.q.r.r.5 # D |.N.g.g.d.U.s.t.) ( A ( / ) _ ",
"^ ` @.@.H.L.#X$Xy r Q L.H.o.o.O.X.{ ' ' F V y G  .| F.| G N 6 M J 0.J | G N N M S C C G 0.J 7 t g v D d.a.g.Z.t.( A A m A ( ( / ",
"T ! _ ^ @.J.`.P.E i y r - - y B M r u s r 6 * 8 M u M 6 6 6 * * 6 6 6 * % % * 6 - t u c V W ` :.R , > v A t.A n m m v v 3 v v T ",
"R p p 1 p R :.~.3X2XT.P . = = % . P ,.T.R.R.~.A.%.:.%.+.! s - 4 * & % @ Q =X5X5X8X8X9X9XwXyX8X3X2XT.T ; 3 3 3 3 3 3 T R / R R / ",
"wX3X2X2X8XrXuXgXuXuXuXwX:.= = 1 T.wXpXgXjXfXfXfXiXiXpXiXwX2X:.s & * - %.rXjXkXkXjXgXgXsXpXgXuXuXyXyX8X=X2X3X3X3X9X8XrXyXaXuXyXyX",
"lXjXjXlXlXlXlXzXlXlXhXjXpX~.! 2XgXjXcXjXcXlXlXfXhXkXkXkXhXiXwX5X+.! 5XjXxXcXcXcXcXlXlXgXjXjXgXgXhXjXjXjXfXfXgXfXjXvXcXcXjXcXcXzX",
"vXcXvXvXcXxXzXxXcXlXjXcXcXcXgXcXvXvXvXcXcXcXvXxXlXzXzXxXkXkXhXhXpXsXzXvXvXvXcXcXcXcXcXcXlXcXlXlXlXzXcXcXcXzXzXzXvXvXvXvXvXvXvXvX",
"vXvXvXvXvXvXvXvXcXxXvXvXvXvXvXvXvXvXvXvXvXvXvXvXcXcXcXcXzXcXlXcXxXcXvXvXvXvXvXvXvXvXvXvXvXvXvXcXzXvXvXvXvXvXvXvXvXvXvXvXvXvXvXvX",
"vXvXvXvXvXvXvXvXvXvXvXvXvXvXvXvXvXvXvXvXvXvXvXvXcXcXvXvXcXcXcXvXvXvXvXvXvXvXvXvXvXvXvXvXvXvXvXvXvXvXvXvXvXvXvXvXvXvXvXvXvXvXvXvX",
"vXvXvXvXvXvXvXvXvXvXvXvXvXvXvXvXvXvXvXvXvXvXvXvXcXvXvXvXcXcXvXvXvXvXvXvXvXvXvXvXvXvXvXvXvXvXvXvXvXvXvXvXvXvXvXvXvXvXvXvXvXvXvXvX",
"vXvXvXvXvXvXvXvXvXvXvXvXvXvXvXvXvXvXvXvXvXvXvXvXvXvXvXvXvXvXvXvXvXvXcXvXvXvXvXvXvXvXvXvXvXvXvXvXvXvXvXvXvXvXvXvXvXvXvXvXvXvXvXvX",
"vXvXvXvXvXvXvXvXvXvXvXvXvXvXvXvXvXvXvXvXvXvXvXvXvXvXbXvXvXvXvXvXvXvXvXvXvXvXvXvXvXvXvXvXvXvXvXvXvXvXvXvXvXvXvXvXvXvXvXvXvXvXvXvX",
"vXvXvXvXvXvXvXvXvXvXvXvXvXvXvXvXvXvXvXvXvXcXvXvXvXvXvXvXvXbXvXvXvXvXvXvXvXvXvXvXvXvXvXvXvXvXvXvXvXvXvXvXvXvXvXvXvXvXvXvXvXvXvXvX",
"vXvXvXvXvXvXvXvXvXvXvXvXvXvXvXvXvXvXvXvXvXvXvXvXvXbXbXvXbXvXbXbXvXvXvXvXvXvXvXvXvXvXvXvXvXvXvXvXvXvXvXvXvXcXvXvXvXvXvXvXvXvXvXvX",
"vXvXvXvXvXvXvXvXvXvXvXvXvXvXvXvXvXvXvXvXvXvXvXvXbXvXvXbXvXbXvXbXvXvXvXvXvXvXvXvXvXvXvXvXvXvXvXbXvXvXvXvXcXvXcXcXcXcXvXvXvXvXvXvX",
"vXvXvXvXvXvXvXvXvXvXvXvXvXvXvXvXvXvXvXvXvXvXvXvXnXvXnXnXvXnXnXvXvXvXvXvXvXbXvXbXvXbXvXbXvXbXvXvXvXvXvXvXbXvXvXvXcXbXbXbXbXcXvXcX",
"vXvXvXvXvXvXvXvXvXvXvXvXvXvXvXvXvXvXvXvXvXvXvXvXvXvXvXvXbXvXnXvXvXvXvXvXbXvXbXvXvXvXbXvXbXvXbXbXvXvXvXvXvXbXvXcXbXcXbXbXvXvXcXvX",
"vXvXvXvXvXvXvXvXvXvXvXvXvXvXvXvXvXvXvXvXvXvXvXvXcXvXnXvXvXnXvXcXvXvXvXbXvXbXbXvXbXvXvXbXbXbXbXvXvXvXvXvXvXvXvXbXbXvXcXbXbXcXvXcX",
"vXvXvXvXvXvXvXvXvXvXvXvXvXvXvXvXvXvXvXvXvXvXvXvXvXvXvXnXcXnXbXvXvXvXvXbXvXvXvXbXvXbXvXbXbXbXbXbXcXcXvXcXbXvXbXvXbXbXbXbXbXvXcXvX",
"vXvXvXvXvXvXvXvXvXvXvXvXvXvXvXvXvXvXvXvXvXvXvXvXcXvXvXvXcXvXbXvXvXvXvXvXvXbXbXvXnXnXnXbXbXbXbXbXbXbXvXbXvXbXbXbXbXbXbXbXvXcXvXcX",
"vXvXvXvXvXvXvXvXvXvXvXvXvXxXvXvXvXvXvXvXvXvXvXxXnXvXvXnXnXnXvXbXvXvXvXbXbXbXbXbXnXnXbXnXbXbXbXvXbXbXbXvXvXvXbXbXbXbXbXbXvXvXvXvX",
"vXvXvXvXvXvXvXvXvXvXvXvXvXvXcXvXvXxXvXvXvXvXvXvXnXvXcXvXnXvXvXvXvXvXbXvXbXbXbXbXbXbXbXbXbXbXvXbXvXvXbXvXbXbXbXbXbXbXbXbXcXvXcXvX",
"vXvXvXvXvXvXvXvXvXvXxXcXvXvXvXcXvXvXvXvXvXvXvXvXvXnXnXbXvXbXnXnXbXbXbXbXbXbXbXbXbXbXbXbXbXbXbXbXvXbXvXbXbXbXbXbXbXbXbXbXcXcXvXcX",
"zXvXvXvXvXvXvXvXvXvXvXvXcXvXcXvXvXvXxXvXnXnXvXvXnXnXnXnXbXbXnXbXbXbXbXbXbXbXbXbXbXbXbXbXbXbXbXbXbXbXbXbXbXbXbXbXbXbXbXbXbXbXcXcX",
"vXvXvXvXxXvXvXvXvXxXvXvXvXcXvXcXvXvXvXvXnXnXnXvXvXxXnXnXbXbXnXbXbXbXbXbXbXbXbXbXbXbXbXbXbXbXbXbXbXbXbXbXbXbXbXbXbXbXbXbXbXcXcXvX",
"vXvXvXvXvXvXvXvXcXvXvXvXcXvXvXcXvXvXxXvXvXxXnXnXnXnXnXxXbXnXnXnXbXbXbXbXbXbXbXbXbXbXvXvXvXvXbXvXbXbXbXbXbXbXbXbXbXbXbXbXbXbXvXcX",
"vXvXzXvXvXxXvXvXvXcXvXvXvXcXvXvXvXvXvXvXvXvXnXnXnXnXnXnXbXbXbXnXbXbXbXbXbXbXbXbXbXbXbXbXbXvXvXbXbXvXbXbXbXbXbXbXbXbXbXbXbXvXvXbX",
"vXvXvXvXxXvXvXvXcXvXvXcXvXcXvXcXvXvXxXvXvXvXxXnXnXnXvXnXnXnXnXnXbXbXbXbXbXbXbXbXbXbXbXbXbXvXbXbXbXbXbXbXbXbXbXbXbXbXbXbXbXvXvXbX",
"vXvXvXvXvXvXvXvXvXcXcXvXvXvXcXvXvXvXvXvXxXvXvXvXvXnXnXvXnXnXnXnXbXbXbXbXbXbXbXbXbXbXbXbXbXbXbXbXbXbXbXbXbXbXbXbXbXbXvXbXbXbXbXvX",
"vXvXvXvXvXvXvXxXcXcXvXcXcXcXcXcXvXvXvXvXvXvXvXvXvXvXxXnXnXnXnXnXbXbXbXbXbXbXbXbXbXbXbXbXbXbXbXbXbXbXbXbXbXbXnXnXvXbXbXvXbXvXvXvX",
"vXzXvXvXvXvXvXvXvXvXvXvXcXcXvXvXvXvXxXvXvXvXvXvXvXvXnXnXnXnXnXnXbXbXbXbXbXbXbXbXbXbXbXbXbXbXbXbXbXbXbXbXnXnXnXnXnXvXbXbXbXvXvXvX",
"nXnXnXnXnXnXnXnXvXvXvXvXvXvXvXvXvXvXvXvXvXvXvXvXvXvXvXvXvXvXvXvXbXvXvXvXvXvXvXbXbXbXbXbXbXbXbXbXbXbXvXbXnXnXnXnXnXnXnXnXnXnXnXnX",
"nXnXnXnXnXnXnXnXvXvXvXvXvXvXvXvXvXvXvXvXvXvXvXvXvXvXvXvXvXvXvXvXvXvXvXvXvXvXvXvXvXbXbXbXbXbXbXbXbXbXbXvXnXnXnXnXnXnXnXnXnXnXnXnX",
"nXnXnXnXnXnXnXnXvXvXvXvXvXvXvXvXvXvXvXvXvXvXvXvXvXvXvXvXvXvXvXvXvXvXvXvXvXvXvXvXbXbXbXbXbXbXbXbXbXbXbXbXnXnXnXnXnXnXnXnXnXnXnXnX",
"nXnXnXnXnXnXnXnXnXnXvXvXvXvXvXvXvXvXvXvXvXvXvXvXvXvXvXvXvXvXvXvXvXvXvXvXvXvXvXvXbXbXbXbXbXbXbXbXbXbXnXnXnXnXnXnXnXnXnXnXnXnXnXnX",
"nXnXnXnXnXnXnXnXnXnXnXnXvXvXvXvXvXvXvXvXvXvXvXvXvXvXvXvXvXvXvXvXvXvXvXvXvXvXvXvXbXbXbXbXcXbXbXbXbXnXnXbXnXnXnXnXnXnXnXnXnXnXnXnX",
"nXnXnXnXnXnXnXnXnXnXnXnXvXvXvXvXvXvXvXvXvXvXvXvXvXvXvXvXvXvXvXvXvXvXvXvXvXvXvXvXvXnXbXbXbXbXbXbXbXnXbXnXnXnXnXnXnXnXnXnXnXnXnXnX",
"nXnXnXnXnXnXnXnXnXnXnXnXvXvXvXvXvXvXvXvXvXvXvXvXvXvXvXvXvXvXvXvXvXvXvXvXvXvXvXvXcXnXvXnXcXbXbXbXbXbXbXbXnXnXnXnXnXnXnXnXnXnXnXnX",
"nXnXnXnXnXnXnXnXnXnXnXvXvXvXvXvXvXvXvXvXvXvXvXvXvXvXvXvXvXvXvXvXvXvXvXvXvXvXvXvXvXnXbXnXbXbXbXbXbXbXbXbXbXbXnXbXbXbXnXbXnXnXnXnX",
"nXnXnXnXnXnXnXnXvXvXvXvXvXvXvXvXvXvXvXvXvXvXvXvXvXvXvXvXvXvXvXvXvXvXvXvXvXvXvXvXvXvXzXvXcXvXvXbXbXbXbXxXbXbXnXnXbXbXbXbXbXbXbXbX",
"nXnXnXnXnXnXnXnXvXvXvXvXvXvXvXvXvXvXvXvXvXvXzXfXvXvXvXvXvXvXvXvXvXvXvXvXvXvXvXvXvXlXaX8XyXzXzXcXxXxXxXzXxXbXnXxXbXbXcXlXlXxXbXbX",
"nXvXvXnXnXnXvXxXcXvXvXvXvXvXvXvXvXvXvXvXvXaX^.T.5XjXzXxXvXvXxXvXvXvXvXvXvXzXlXgXaX8XA.5.V.rXfXkXkXkXkXkXkXkXzXxXcXlXhXrX&X4XdXxX",
"lXzXzXzXzXzXlXkXlXzXzXzXvXxXxXvXvXvXgXaX3X^.>X3XR.!.tXsXfXjXjXjXgXgXlXvXaXaX3X!.Q.A.k.A.t.y.%X>X4XqXtXtXtXtXaXdXsXtX=XF._.G.&XeX",
"$X>X4X6X6X7X6X6X7XqX7XqXeXeXeXeXqX6X=X@X>XqXqX0X-XW.R.=X=X>X4X4X^.^.^.^.^.Q.A.2.2.u.u.A.u.( d.s.| J.#X#X%X%X%X=XoXK.'.<X<X.X'.F.",
"}.`.`.`.].|.|. X;X;X$X|.;X:X:X1X,X,X-X1XJ.W.0X-X=X%XQ.W.W.Q.Q.$XA.A.Q.A.Y.Y.k.k.k.k.j.u.k.A.Y.Y.].`.`.|. X:X_.'.]. X.X X X X X X",
"U.I.I.N.M._.g.[.#X[.#X#X#X[.[.[.F.OX*X-X>.>.-X-X%XoXW.R.J.J.R.Z.A.A.A.A.A.k.k.u.u.u.u.u.u.k.u.k.k.h.N.B.`.`.].].].].'._.G._._.I.",
"I.U.U.P.I.P.Q D.I.L.I.[.L.[.).H.K.@X&X&X-X-X&X@X+XE.T.C.V.C.C.C.V.u.u.A.u.k.u.u.u.u.5.u.u.u.u.u.9.d.h.g.M.M._._.].]._._.b.G.P.P.",
"P.v.P.P.P.I.P.D.G.L.G.L.L.L.L.+.U =.@X@X&X&X@XXX>.>.%..._ ` V.V.V.y.y.y.u.u.u.5.3.<.<.<.3.3.3.3.2.4.4.8.z.v.G.G.I._.G.G.n.D.D.D.",
"g.g.Z.g.c.O.c.c.c.S.$.*.*.C.-.] K =.XX>.E.E.,.>.>.+.+._ ^ ^ / _ / m y.( A 2.2.<.<.k b b b b b b k n b A i.a.l.c.c.S.b.c.c.| | C.",
"y a r r a y 0 0 0 0 a a a L L L U U U U U U K K K K w < < < = = : : : : ; # $ $ ; ; ; 2 > ; ; ; ; > , 7 u 8 u y y y s u y 0 y r ",
"0 9 X 9 0 0 0 9 . q q q w w e K K K K K K K o K < < < < < @ . @ # @ # # # # $ $ O $ O O O O     # # # % % % % % % - 9 9 9 X 9 0 ",
"W ] ] ' ] V d a 9 ] +.I Y I I ~ U U Y U Y Y K ~ U L 0 0 s 0 = , t 1 3 5 , f g g 2 2 2 + + $ O $ ; > > > 6 6 8 6 6 d d d M d ] d ",
"&.O.*.=.&.X.d I 0 #.&.&.&.&.&.=.=.&.&.&.=.>.Y =.#.+.P E W E i B A S m C C C C C b z l l l j $ l g g C N N N N V F G X.G O.=.O.O.",
"(.(.F.(.;.*.*.*.a =.;.;.;.L.(.XXXXXXXXXX@X@X] >.&.#.[ ~ E B i ) t.i.} D D D 6.4.1.1.1.1.h j 5 8.4.Z 4.8.J | J | O.O.O./.F.*X).(.",
"(.(.(.K.=.=.*.o.y K.E.K.(.XXXXXXXXXXXXXXXX@X] =.&.@.[ Q V E t ) s.p.i.p.p.q.q.9.7.7.7.1.+ 2 5 q.q.9.8.8.0.p.| l.b.x././.(.,XOX).",
"(.(.K.K.S.*.$.#.s K.E.oX(.(.+XoXoXoXoXOX@XOX~ &.#...' Q Q Q M 8.p.p.a.z.a.a.a.q.H 6.w.{.q.1.5 8.w.q.q.q.0.z.l.c.F.x.x./.).*XOX).",
"(.(.(.;.*.*.$.#.a K.K.=.oXoXoXXXoXoXXX(.XX@XI X.X.{ { { Q Q B p.z.M.z.z.m.a.q.q.z 7.{.N.w.7.h 7.h.a.q.q.a.p.l.x./.b././.).OXOX).",
"(.(.(.;.*.$.$.X.s K.K.X.K.oX(.(.XX(.(.(.=.XXd X.' { { { } } V x.M.M.z.z.z.a.8.8.j z w.w.w.7.h q.h.w.q.m.h.l.l.b./.O././.).).).).",
"(.(.K.*.#.Q [ @.s ;.oXL.K.L.(.(.(.(.(.K.(.=.a ] { { { { } l.F x.n.v.M.z.a.a.8.8.j l x x w.1.f 9.m.m.M.q.m.z.l.l.x.x.b./.).).).).",
";.K.;.*.@.[ ' ..s E.W.K.E.L.K.K.;.;.;.*.;.&.0 ' { { } { | l.G _._.M.z.m.a.8.6.8.j l Z C q.7.f H N.m.N.r.a.z.J | b.b.b.G./././.(.",
"F.;.;.-.-.-.-.-.s L.(.L.K.K.K.;.*.=.O.*.*.X.y ' ' V { } | | V /.x.n.v.z.a.9.1.6.l z 7.w.7.7.5 C N.B.B.M.m.z.G b.v.b.l.l.O.b.F.;.",
"*.-.*.K.-.K.K.L.a K.oXH.;.K.*.*.O.O.#.X. .' y V G V V N  .l.V n.x.n.v.M.a.8.6.1.z 1.7.7.7.q.f j B.|.{.M.M.z.| _.c.f.s.{ o.$.*.*.",
"*.$.H.H.K.K.L.H.r *.(.K.*.*.&.O.#.X.X.X.[ ' y Q G V N d | l.N n._.n.v.m.p.q.8.6.1.7.7.7.7.w.5 f B.:XB.M.M.p.b._.f.s.} } }  .o.o."
};
