/* XPM */
static char *result[] = {
/* columns rows colors chars-per-pixel */
"64 64 113 2 ",
"   c #1E1E23",
".  c #201F24",
"X  c #1F2126",
"o  c #232226",
"O  c #282627",
"+  c #25252A",
"@  c #28272A",
"#  c #27282E",
"$  c #2B2A2D",
"%  c #312E2E",
"&  c #33302F",
"*  c #272930",
"=  c #2C2D32",
"-  c #2B2F38",
";  c #312F31",
":  c #2E3036",
">  c #2F3239",
",  c #333234",
"<  c #393635",
"1  c #3C3837",
"2  c #33353B",
"3  c #393738",
"4  c #36383E",
"5  c #3B3B3D",
"6  c #413E3D",
"7  c #44413E",
"8  c #49433F",
"9  c #333740",
"0  c #363A42",
"q  c #3B3D43",
"w  c #3A3F48",
"e  c #403E40",
"r  c #3E4145",
"t  c #3E424A",
"y  c #3F4652",
"u  c #424345",
"i  c #494645",
"p  c #4C4945",
"a  c #42464B",
"s  c #484749",
"d  c #45494E",
"f  c #4B4B4C",
"g  c #514F4D",
"h  c #50504F",
"j  c #59544D",
"k  c #414751",
"l  c #454A53",
"z  c #494E53",
"x  c #464E59",
"c  c #484F59",
"v  c #4C5156",
"b  c #47505D",
"n  c #4C525C",
"m  c #4F585F",
"M  c #525354",
"N  c #595756",
"B  c #5D5B57",
"V  c #52565C",
"C  c #54595E",
"Z  c #5A5A5B",
"A  c #605D58",
"S  c #63625F",
"D  c #4D5661",
"F  c #4F5864",
"G  c #49546A",
"H  c #505761",
"J  c #535B64",
"K  c #595E65",
"L  c #555E6A",
"P  c #585F69",
"I  c #525E71",
"U  c #5C6064",
"Y  c #57606C",
"T  c #5B636C",
"R  c #576170",
"E  c #5B6572",
"W  c #5F6874",
"Q  c #5E6A79",
"!  c #626464",
"~  c #6A6864",
"^  c #61676C",
"/  c #64696C",
"(  c #6A6C6E",
")  c #616672",
"_  c #626B74",
"`  c #696E72",
"'  c #636D7A",
"]  c #667077",
"[  c #6C7277",
"{  c #66717D",
"}  c #6A727B",
"|  c #717374",
" . c #797A78",
".. c #667281",
"X. c #6A7683",
"o. c #6D7885",
"O. c #6C7B8A",
"+. c #737785",
"@. c #737C84",
"#. c #797E83",
"$. c #727E8A",
"%. c #778084",
"&. c #75818E",
"*. c #7A838B",
"=. c #6F8092",
"-. c #738191",
";. c #798693",
":. c #7E8A94",
">. c #7F8D9A",
",. c #848D93",
"<. c #828D98",
"1. c #8693A0",
"2. c #8A98A6",
/* pixels */
"' ' J k w w 4 t c n c l V U ) ^ T W C u r q r l m : = z L H D c x k x P } u # = t Y T Y U W ,.S < @ : > t U m 4 + X + = a ' o.o.",
"' T x t 0 0 w t k l l l v J T T U M z r q q t d d : : c H D x k w a x P ) z o = a C U L J n T ~ 1 $ : r d t t t a 5 $ + > n T W ",
"J D b l k x a w t k l l v V K K C f d r q q q t m 5 r m D c x t t a l n J C # = a n H H J n J _ 5 > r r t r t t a M v $ X r F U ",
"L E Q E L D l t r t l z v V C Z C f d t r q r f m t b J L H l t k x c c c K q o t z n C C m C T 3 > r r r t t t t t d 3 X * w r ",
"' ' E T F D x t w t l z v v C Z C v d r r q r r z d n T T J l y l c c n H H v . 0 k v v v V K _ q : t t a f d d d d d u $   = b ",
"L L L L L n l a t t d v C V C C m M d r r r q q v u b E R J l k l n V H H c V ; r l b v v n K _ d X > t v m M v v v v 7 $ # x J ",
"D D H L L D x k a t a l V V V J C V h t r r q r n r x E E n k k c H n c n c c = t l z v n C U ' [ # X 2 V C C C V v a = = w b D ",
"b b c H D c x a r t t l M C C K K K C v r q r r N 3 t Y L c a l c V v c c c M = 4 t t l m U T _ } 5 o $ v C C C V l > $ = t x v ",
"k k x c x l l a r w w r a V v V J U U V t q r t v : r x x y 9 r e e w 9 ; > 0 < . * # # = = , , 4 < O X : 4 4 4 3 : o o # : 0 r ",
"; 2 q 3 > * * # = $ @ o . + + = > 3 4 > = # # $ $ o $ 2 : # + o . . = > 3 0 3 e e e s 5 , 0 4 z z r ; : : = $ : 1 < O o o @ o + ",
"e l H K N 5 1 < 5 u 7 7 6 $ O < 6 u u u s u 7 1 s v M h h h 7 6 ; > c c c J I ) H L ' ' ' $.H #.` / c Q ] ] W T / ^ M < 5 a r r ",
"x k l L ) T N 6 5 v U S 7 $ n ' *.,.,._ } &.*.T } T Y T T T N 8 < > k e k n P _ R R ..O.-.$.u V m =...O.X.=.X.' o.&.$.z > t v F ",
"x y l G I I ` s 2 z } [ M J O.$.;.2.1.U } O.o.{ W Y T T Y m C h e > y e x b I ......X.O.O.O.z a ' ' Q ..=...Q E W { 2.&.> r b Y ",
"l y y b F I _ Z 2 z ' o.{ ' ' o.&.>.<.T o.o.o.' W T W T J v l n N , e z b G I ..X.O.X.X...X.^ a m F I Q =...Q Y T Y o.;.2 y b b ",
"y y y b x x L P , z ' ' ' ..o.$.&.;.%.T { { { _ W T E F n x l l v > k b F P X.O.X.X.X...' { K e t b F R O...E Y Y Y Y ' 2 b b b ",
"l y x b D L b P ; w $.$.o.$.&.$.&.O.{ T T _ ] _ W Y Y F n l l l z 2 z H I ..O.X.O.....Q ' ..( p 2 t F I R E E F Y Y E J > b F b ",
"b b D y y D b D = a $.$.o.o.} { o.} _ T T T _ E T Y H n b l l a a = 0 L E Q ..O.O...X.Q E E ) ~ u 4 F L Y L E R R Y L n > b L G ",
"D F D b D G Y Q 0 z ..} _ T E ' ' ) W ) ) ] T n W T L v v z a t t #   t E Q ..O.$.$.X.{ W T Y *.~ 2 F F F L L Y R E Y n > b E R ",
"D D D G D D Q <.0 w H L E E P L T T _ _ _ } K l T T H n v l a t 0 $ $ : Q Q { O.-.O.X.{ Q T E ' %.r y F F J L Y Y Y J l X w L L ",
"D D x D x b J &.0 * z L _ ' P n D Y ) _ ) ` L w b v k a y a y r : $ , = t Q E D ' X...' Y Y J D Y 2 t F D F F F L F D k   9 b D ",
"# * * = # # * > + X = 0 t k w 0 2 , 0 q t d r , , $ : = = = $ $ o O $ , + 2 4 + > q r 2 = - = * # X : 4 4 > 2 4 9 9 q 0   + * * ",
"= 3 3 3 : % & $ + $ d z z l n b a ; o * 0 a N | ( ! ( B u M d u r 2 < $ : 3 4 r t d d , + ; 2 < & % O O o + : 4 2 9 u w 0 0 0 0 ",
"b J m V h f i % $ 4 E ' E ..O...#.Z + = a a n _ Y ) $._ ^ } ^ L U Y v $ 4 t r t a n L M 3 $ q u 6 7 7 i 5 o : r k w k c x D L D ",
"F F F F _ T U 3 $ t F D G E E R +.Z $ o w k l k n W +.} ' _ T Y Y T a $ r t r r r d D v d @ , u v M M U M $ o : 0 k t x x b b w ",
"D b b b F E } f # x D x D L R I ' f $ . 2 l e k D ) ' ' ) E _ E T Y , $ a a t r r a c z q @ = q f d a z U N @ @ 9 0 0 k x x y G ",
"b l x b D J Y m , y x D D F E Q E u % o w a w y c E ) E T ' _ ) U z $ r z a r r u a z d 2 @ < q q r r k V ! < . - 0 9 9 w l D D ",
"a y l b F F b z - y F G F E ....} 6 @ + 9 w 0 w k D J L U } ' _ L r , d v t r r t a z z , $ 5 q r r u l z M 6   . * 9 y l y y y ",
"t l l l b z a t = l Q Y G I E ..' e $ * x D w 0 t l c H T } o.} T q 2 n v t r r r z V M = $ r a a d z v v v 6 O # 0 k w w w 0 0 ",
"t a y y t r 4 0 * 0 ' R L D R ' ' s # 2 L n L x q w k c T } } .._ 4 4 J v d a t u z V V ; = a z v V V J V M 1 O $ - t 0 0 0 0 0 ",
"r r 0 0 4 2 2 4 # - Q R D I E E ' z o = n c ' +.T k w z L E ) } ] 4 z T n l d d z z z z $ ; z V J J K P K N 6 % @ # 9 0 0 w t r ",
"9 > 2 2 2 2 > 2 o - L G L W E E ' l . * x b c L o.o.J K V J ) ' { 2 r D l a d v z z z 5 @ ; V H J K P T K i 1 $ O X * 4 t l x t ",
"> X + # > 2 2 :   * w l L G n D H 2 . # k x x x D E H k w k z l z * # 4 4 4 2 2 = * ; , # . 0 a q z J J v 8 & $ & $ o + 4 t t k ",
"d 5 q e e f f 2 o . o = = 2 , 2 2 & % % = $ = & ; ; ; % $ $ ; $ + # = = 2 5 5 r r d 7 u f $ O o o O $ t v f 5 5 u 1 < : : : $ 2 ",
"C c v n V n K N & # q v v d a a y z v g 6 6 6 8 f C U / K / K B 2 # 4 4 a d z d y d z z T h & O $ O 2 W H n V ) L K U Y T V 3 s ",
"l a w w w e l Z % @ u L n z x x v y m B 5 q u y t f T / K ] :.%.7 + > > 4 r 4 2 4 4 r t T C O % = + ; l a _ { Q T Y U T ] M , v ",
"t w 9 9 w w k i @ ; k x c n F J J m y m & 2 q r r r t v m U *.` < + > > 4 4 2 2 2 2 r d T / & O $ X = r r F U U U K C K T v $ a ",
"0 0 4 2 9 0 w q + w c c b m J T Y m m n , 2 5 5 r r u d m / %.p & o 2 5 r 0 4 2 2 4 t v U [ & O O @ > r b b K J C J C J U g % > ",
"9 9 9 0 9 9 e q o w H H F J Y T Y U J m 5 u r r r r r i d K %.p & X 0 d r 0 0 0 r r t c T ] 3 $ + # 2 z l k n n n m C C J f < : ",
"0 0 2 0 0 w n v . 9 J J U Y E W E F m m r t r i t r r a d C ( j , o a m a 6 r r r r a n T o.7 & $ = 4 t t t l z n n v z v 7 % 4 ",
"w w 0 0 0 0 e H $ = H P Y Y T T Y m m m 5 f t t i i t i a d V  .h o t v d t t r t d z m Q %.f & O + 4 z a a a l v v v d a : > r ",
"l a 2 0 w 0 w z % X r T U J J m n b m U 2 u u a d u r r u d z | M o 0 t q a a u a l b U } o.d O o o 4 z l k k v F m v l 5 + 4 l ",
"v q = q 0 w q w , o X y m n n y l d n Y > t r r u r u e 5 5 t ~ f o 5 r 0 w d d d v m T $.U < O o o = l z k z V C m H u $ o 4 l ",
"- = o * * * = = , $   X * : > ; = = > 2 + 5 6 5 q e 5 5 2 : : d 4 X 2 5 5 5 q u t a z b a h p & @ . o # : = * : 4 r u , o   o * ",
"# $ = = $ # $ 3 1 1 % $ + O O = % % ; O   $ $ = , > $ o O X O X O o @ # # ; $ % , : @ $ o $ & , e 5 < $ $ : & o @ a N v 4 2 , * ",
"r q d l z s d f d d j B < % & r u i p f u q = u n v d r 5 3 , $ r f d a d d z K ~ ! 3 2 : t a f Z ^ J z C U U u # x L L L Y V a ",
"r u d v C z u u u r C ( p % , 5 q f C U U v : d v C M s r t 6 $ r b K L v a k H { } 2 $ G R d y H V a l V L m z * l b D H P b t ",
"r a v C V d t u 6 r z S f & 2 r 5 4 r z v n f t l v v a t r u @ q k F H n z l c T _ $ y R n r r r w q u a l l q = k l x J L b d ",
"u d z V z a u r r u d d 1 % : q q 4 2 r d l f r s x v u t r n $ 0 z n J H n b J W J # J ' l r r r r r q r r l w * t z n L L n a ",
"t d f a s t r q 6 r r 7 6 , $ q q 5 2 5 r t r r y z z t t u C : r v n m J J Y Y E n o l _ l q q w r r r r t f a 2 T E E Y Y b d ",
"d d f a u r e r 5 q u d j 7 $ r t 5 2 2 5 5 5 r t f z z d a M : r m H J L T o.J E z o w L P z a t r t r t t l t - b Q >.-.Q J b ",
"V M n f u t r t e r r d B < O 5 u r 5 2 4 5 5 r t r d d t r q # w x n J F D Q T ..w o * 0 0 c z d a d v a a a r = y y X.;.=.Q o.",
"K C V f s q 5 4 1 4 r u a $ X ; q q 2 2 3 5 4 5 r r r 5 2 2 : @ r t l b b b b Y } z O * k 0 2 w r 4 r r t d x 2 X y y R I W Q o.",
"$ $ : $ o o o o o o O & 1 O X O 2 r q q ; X O $ ; : : : O X O X * # * = : > : > a U 5 o = # . . X o @ @ $ : > @ X # # = # + + # ",
"s f h 6 O O $ 3 3 2 q d V h f a v z z M s = O + 4 d C J C s : $ + + $ 4 r q a t d M p 7 f C i ; @ : z d f v N h r 6 1 & O $ 2 4 ",
"J T @.f & $ = d r y x x v v C U U m Y U m : $ O 4 n Y b v T M 1 < + $ z J P ^ T Y C V K ) ) } A , $ l J Y T T L m V B i % t T T ",
"U m m f < $ $ k y z v v v m C Y T T ] ] U 3 O O t n n b x y z M 5 # = z n F J L Y P P J L P E U , : r z n H P H n n T B $ 9 Q } ",
"T m z r r + = y y z v v v m U / U U m z n < X 4 y x z F J D a l d O > l c n D H D H L L J L L H ; 0 w x H H H J J J _ %.$ - T } ",
"U m z r 5 + $ y y y y h m m T P m m n l n ; # y a k n L E Y l 0 i = > k c D n D n D H L L L L H = 9 w x H H H J U Y W } , = P ' ",
"m n d q 5 O X y f r r y v m U P K m c n m # X r l l F J P L z 0 u 5 = k c c c c c n L L H F L P > 2 y x D n H L Y Y W *.q = L E ",
"m l r 0 q $ X t y r r y v m m K T m m n U ; . $ a b J P P D k 0 q i 2 y x x l l x c H H H H P P > 2 e z c n J L Y W W b 4 0 J J ",
"m l t r 7 , X r y t t d v m m m J m m b K 1 O X r F J Y P J l w 0 > 9 t k k y w w k x n n L v 0 . 2 k l x H H L R L t t = # n P ",
"4 r r 5 7 ,   * q t y y y z v m n n v l l 7 $ O : x n n J V z 0 0 X = 9 0 w w 9 0 0 w y e e ; @ . + 9 w w w 0 0 0 , * # +   = 0 ",
"4 > : r h f , O O $ % $ $ $ 2 0 4 > 4 4 0 r 5 < @ # : 4 w 0 w 0 d e , > = o . o + ; $ * 2 e , ; % . . $ @ ; # + , < ; + 0 z a w ",
"R Y m n m K K q u 5 r r t v v C C u d z d d d v d % $ n K b J P U ^ J K ^ 3 @ + ; i i e h ( S < @ ; , 0 a +.V o = = ; ; C &.o..."
};
