/* XPM */
static char *result[] = {
/* columns rows colors chars-per-pixel */
"64 64 44 1 ",
"  c #69543A",
". c #6D583F",
"X c #6E5A43",
"o c #735D44",
"O c #725F49",
"+ c #766249",
"@ c #79654C",
"# c #7D684E",
"$ c #7A6752",
"% c #7E6A52",
"& c #806A4F",
"* c #826E54",
"= c #816D59",
"- c #867156",
"; c #867259",
": c #8B765C",
"> c #8F7A5F",
", c #90775D",
"< c #907A5E",
"1 c #867460",
"2 c #897663",
"3 c #8E7A61",
"4 c #8C7A68",
"5 c #927D63",
"6 c #927F69",
"7 c #958165",
"8 c #998367",
"9 c #968369",
"0 c #9A856A",
"q c #9C896D",
"w c #9E8B71",
"e c #9F8D7B",
"r c #A08C6F",
"t c #A18D73",
"y c #A28F78",
"u c #A49176",
"i c #A69379",
"p c #A9957B",
"a c #AB997E",
"s c #A79587",
"d c #AD9B81",
"f c #B29D81",
"g c #B5A489",
"h c #BBAA8E",
/* pixels */
"t0900rtt00003*t0q5:::::::::::::::::&:-rgrr888rpr<,55556,,65555ru",
"q0906000qq085Otrq92::::::>:65<::::--80aar88rrrp88,,rr5p55t5rp55u",
"0880808860086;6000,::::::-:q8--::<8888uu888rrrr86,,556p6r5pppurf",
"9989886088680050005::::::*<r:-<5588577rqr888rrr865,5ftrr6r5r5p6p",
"80806888666trr25r6::::,,::90%588777777q85r5rrrr85r,,r56u5rrr6u5u",
"86800860rtttrr6;86:::::,:565O558<77777r8r5r5rrr<65,,r556rr55r5u5",
"88088080tt6tt6t3;6:,::,,->3;@555877777885r5rrrr8555,r6556rrrp55r",
"08688680u6trtrrr*:3,5555::3=368577<77777r5r88rr8p5&,u5555r5r5r5r",
"55r5r5r5rrp6uut5,,65tr55555565u577778778888r8rr86,&5f5,5rrrr5tr5",
"rr5r5r5ru66rt65,,6prr6656rt5r<55<8<7<88888888rr85,&ppt56r55rr58r",
"5r855r556utp6p5,,rurrr6rtrrrr,557787<8888rr8r8r855,,f6,trr5tr6r5",
"8585r5r5r6r6t65,,6ur6rrrr6r6r,,r887788888888888rr5p5tp,r5rr58r8r",
"85r5r55rr55p5565.5urrrr5r6rru5,58877778888888r885rp5,f66r8rtr5r8",
"5rr85rr55r556r55&&u6r6rrr5,5u5,r8r77<7888r8r888rfpr6,ff66r558rt8",
"r,55r55rr55rr5r5,orp5r6ffpr5p5,r877887888r888r8pf5r566f8r88r5r,6",
"5r5r55r5r5r55r56,&pr55rfr5r555,5rr8<77788888888p6t5rt,6t8rtt5655",
"r,8r55r55r55r5r55,5r5rp5,85855&5rr875777799q999r5r6t85;t68i05585",
"r6855r685rr5r65r5&5r5fp585855,&pr88777777999q99rt6p62;6t03t655<5",
",,6r,rr5566555r55,-55p5558588,,r77777777779q9;;rp65,&trrq8580895",
"r6r5r58tr5rr5r55,&o-prr585855rr57777777--7999;;96,&&5r5r665tt758",
"r65r588tr5555r<,,,,rr5r58585,r5r7777777#->>89999665,r55577rau777",
"588588,turr5665,,tpr5rrr555855557777777>7-7rq999565rp5<,79uhh077",
"885rr6tpprr55r5,,6rrr5r,58588555777777r9>:9r9q99655555,,77qahq77",
"885r5,tupr55r55,5p5rrru58rr558r577777799-9r99r995t655,<r9900t0>7",
"8r688tpuu8885,5,,5666r66rr5r,5r,7>788r8r*7q9q9r97777>70999009977",
"86888puu88,,5665&,5urtrrr55rrr5r77888877>-q99rr977737r0000009977",
"58uuuuuu66,up555,o5tr65rrrp5r5rr8rrrr87737qqqrr9793;r9090900r779",
"r8uuuuut6,6ut555,&,66rrr55rrr5r6rrrr8777777rrru973#7q990900rrrrq",
"5rtuu8r5,,f66p55,,,6t6r6ur555u5trurr77777539rrrr33rr00098qrrrrrr",
"r,rup5rr,pp6p6t56&,6rrr5r5r,&,rrurrr7777777;;9rq3rrrrq9088rrrrrr",
"68tut8tt,66p6p6r5&*666rrrr5r5,6puur877777777$333qi99888r89rrrr78",
"88rtr5r5,6f6u6u5,,,trrr65urrt56puur7777777377999irq9q99999787rr8",
"5rr55rr55,6rrr657%7iwr000rr0qq9quuur87--::777<7qu009r8977r90-8ar",
"6655r55r555r6t5,::9wr000r00000qrrurrr777<-#&7:;qq090999r97095-r8",
"r55r56556r55,,,,:9rry717990rq00rrprr7777<<<<8>70r90999909790>877",
"r5r55rr655r555,5yy9:ew9779;%990qrrrr7777<<,78777r0909r999r98>ur8",
"5<5r6r665,,,5ruurr9%9eq7779%790rrrrr87877<,,<77799990099900>7uqq",
"r5,5tr5&&6ruur6rqq7O%aq9779937rrrr8rrr7777,,77<777099000099*qr0q",
"5r,5tr, 2str6rrr0w9O4e771777;7rq8rr8r8777<,,77777000ruur97>:irqq",
"6r55r62&yp6rrr660ww79q977777:7rq8r8rrr77<,,,<7789900ipair09rrq8q",
"rt6565::fd66r66tqyuqqq07753359rqrr8rr55<<,,,5798q99waewqrrrrqqqq",
"ttr:::2;dsrrruu6qyuwq00755393qrrr8qrr55r5,,,<88959raeqqqqrqrqqqq",
"rqt4:;06turrruutquuw0q03997055rr0rr0558<<,,,880r9raawqqqqqqqqq9q",
"rrq11;9qttrttuuttutqq007558q7;i0rqqqr85<5<<<80ruuuaiqqqqq9q9q9qq",
"wq3:3;27tapuuuuuittqqq0959qqr-arrrr555<rr<5r5rupuqurwqqqq9qq9q9q",
"3q08993>6aauuuuuuut00q00900q8>hpurr8<r<r555<<ruu9qrrrqq9qqqqqqq6",
"00979799rppuuyuuuutrq0qq0qrr7>garrr85555555rrrur9q9qe9q9q9q9qq41",
"077979976suyuuyuuuttrqq0qrru#>arrr8rr<r<r<r55rr8q51r99qqqqqq914w",
"9797979779iuuuuuriiirrqqqrr9X:arrrrrr9rr99999999;;qq99q99qrq19ir",
"797997799;yuuuuuirriirriq53O *rrrr99r9rrr9999994%9r399q999994rqq",
"079779777$riuyyuriirqrir;+XX+*rr77rr9rrr$9q9rqrqr9913q979999qqqq",
"79799797:$yuuuuyiiei9eq1#+%3#*rr999rrr9-$err9q9r9r934q979439q9r9",
"97779777:%quyutuirirrir;>3793;r97777333-9eqqq9q9r9q49q99511q9qqq",
"7977977;%:tyuuuuieriir97973773r9>>>>33>-ir9qqqqq99999q9914rwqqqq",
"97973:77997wtyutrrrr979773333779>>>>33339er99r9rrrqqq99;9q9wqqq9",
"79770rr0w0730qq0r9r7777>3>>>3>>>>>>>33334aqrr9r9q9qq9339qqqw99qw",
"71%7q977qq7;qqqqr977777>>>>>>>>>>>>>>>>>3arr9rrr9r9q999qqq9rr943",
"uq999777997;9qqq9777733>7>>>>>>>>>>>>>>>3ir99r9rr9rqrrqq9qqreiq;",
"uu9777777777%0907977333>>>>>>>7>>>>>>>>>33r99r9r9rq9119qqq9rirq%",
"ri9797777797%9997r7>33>>>>>>>>>>>>>>7>>>3*3rr9r9r9r9119qqqqrrer$",
"7u9997777777%q9qrr7>>>>>>>>>>>>>>>>>>>>>3;*rqqqqrr999999w9qq99r1",
"%r077777779%%uqqr77>>>>>>>>>>>>>>>>>>>>>3;$9q9qqrq999999qqq9949q",
"rur797977997$7qqr77>>>>>>>>>>>>>>>>>>>>>%$1r999q9q99999qqqqqriii",
"iiir097777791+9qr7>>>>>>>7>>>>>>>>>>>>#+199eqqq9rr99949q9qrrerie"
};
