/* XPM */
static char *result[] = {
/* columns rows colors chars-per-pixel */
"64 64 71 1 ",
"  c #7B4D37",
". c #824F3A",
"X c #84533C",
"o c #8A563E",
"O c #8D583E",
"+ c #905B3F",
"@ c #855540",
"# c #8A5641",
"$ c #875841",
"% c #8D5B42",
"& c #845A4C",
"* c #8C5E48",
"= c #935E44",
"- c #9B5F45",
"; c #935F48",
": c #8E604A",
"> c #956146",
", c #9B6346",
"< c #95634A",
"1 c #9B654A",
"2 c #97684F",
"3 c #9D694D",
"4 c #926755",
"5 c #9C6650",
"6 c #976951",
"7 c #9E6B51",
"8 c #986B5D",
"9 c #9E735E",
"0 c #A06447",
"q c #A1664A",
"w c #A26B4E",
"e c #A96D4E",
"r c #AA704F",
"t c #A36D52",
"y c #A96E51",
"u c #A57154",
"i c #AA7355",
"p c #AE7857",
"a c #A67559",
"s c #AB7559",
"d c #AD7A5C",
"f c #B17656",
"g c #B17857",
"h c #B1765A",
"j c #B27B5C",
"k c #AE7D61",
"l c #B27E61",
"z c #B97E62",
"x c #B5805F",
"c c #B8815E",
"v c #AF8061",
"b c #B48263",
"n c #B98566",
"m c #BD8A67",
"M c #B68569",
"N c #BA8768",
"B c #B7886A",
"V c #BD8B6B",
"C c #BF8F71",
"Z c #BF9275",
"A c #C08866",
"S c #C08D6D",
"D c #C2916F",
"F c #C28F71",
"G c #C39272",
"H c #C89774",
"J c #C69875",
"K c #C49678",
"L c #CD9D79",
"P c #D2A37E",
"I c #D1A481",
/* pixels */
"wjccxxrvxcmmDJPm&8siihsiiishkzMGtauuaudkv>>>>3>v>3v3uupvvppruppp",
"wpgi0xrrrxxxDmPP49itttuttwtukznF15333wuuvr3>>>>3 vr3ur3rr3r33333",
"3pprw0wwrvvxcmJP5atw5qyw5q55szMF7t11,,133333>>>>+333333ru333333p",
"wpiww,0r,rrxxcmLuiq155qty55tdznCtt11>=>1>3,33>3v+333333333r>3>33",
"wirw3,000wwxxxmLssqq33335q5qlzzNuu33===>>>>>3>>2+v333333333>>,3r",
"tipw0,000wrvxBDPdsw1qwtuy555ilzMuiuw1,,>3>3>333> >>>33u3r3r3333r",
"tipw003wxrvxvvDPdhyttidduttwkllzudput311333>333v 33v33uu3rr33rrp",
">3r303ww3+%>3vvv5;<<3677w555;5;5%;:><<>>>>>>3>>> ++++>>>>>>>>333",
"vmmxvxmmcv$6vrvvvvvvBvaav632233221677a7vvuuuv33 >>++>,>>3333rrx3",
"mcxxxvvxxvvvvvrvvxvxV7ap33333333<3373uuvpu7u>vv3r3>+++>>333r3rp+",
"vxvr0rruvv,vrvpuruvvx77a773<<3<<1<337vuvvw33>rv33++O++,,>333>3pO",
"wxuuruuu,r,r3uurwrwrvd77u333333>>1<37uvvwww33>33>+++++,>>>>>33r>",
"rruwrwwwww3,3wrw3ruuvv7733333<33,<2ravvau3333r33>++++++>,>>>>3r3",
"rvr0w3w3w3333w3w33wvxvv33763323<>17uavapu33>33v>>+O+++>>,>>333r3",
"3u3>333rww3r3uruurrvxv7u77u6332<3<7dvvaavuuvvvv>>+++++,>,>333rp+",
"$OO O+>,,33>>3>>3<337*3<3<<3<2<%:>><27<>+++%O+++>++++++OO+> +3r>",
"uw3,>33ruw33u3>uu337r7r73uuaaxBu3uv33vvv3332w37vrru3rupupBJppppa",
"uw3>3,33wwr3u7>ur37r7uu7www37pBavu3uvv3>33,,327dp3333rupvvDvpvau",
"3w33,,>3w33,373u3wwruww3,,113uvuv3vvv33v33,3233up3>333upppvppu3u",
"333>,>>3,3>3u7333wwuu3,>>,313ud7v63v33>v33,3333u3>3>33uuupvpuur6",
"3>3>,>>33,3>37>3wwuur3,>>>,13as9u33v333>3>33t77ur>>>3rrpvvmu3u33",
"3333333,33333u>wwtusr7,>>3,,3sdau33233v3333vdasvv3333rpvxvD63pu3",
"33u33r33uuuvvu>vuuisiu1>3373tsktp33323>vv7vvbklBp6ru3rpvvuD66pu3",
">32>>>>><,2<76$>7w333>O>>3<<<3<;326>%+$+%<++t6ut$*+*>3>6u 6:+6>>",
"ru33322u3u633vvvddbbbd>ddddskaaavauvvvv2adsjVdddauutt7t6333v3vvv",
"v336u333333u3vrvsiddln1ddsiuaauiuuvvpvvvsudxGBtittutt3113333>vv2",
"u33>6>33>23uv3rvuiidlk;attw3uuww3uppr333tusjGSwtuww5<31123>>+vv3",
"u32>>>>>32333,v3tuuill5ttq33wutw33333333ttijSVwuw5w13<113>>>O33v",
"u63>3u633>33uuv3uuuibnautw1wtttqr3v333>3ttdhVVtt553115122>>+%uv3",
"u3>>upu3>333u33rsiidMFkaywwtuiut3,333>>3tudMHCttw5t5131532,>>uvv",
"pu66uvu633363uvvdddlVG7udiiassauv3v>3333tilVLNtiiutttt33313337vu",
"66>266:$>>>>>2>37<<<17#;5<<;;;%;++>> OOO<<17dt;<<5<=*>>>%O*<6v32",
"ddddkdaaauaaddjMz488yh8y8hyyhzhhurriuva>nbhjbljjdlMdhk9h9iklMMMl",
"9w9uaaauutttusdlFkhhyyyhy5yy8hzhuwwwwpmijhipjjjjdthdahsilillllka",
",133tt7333ttuaddNtyh8yy5y55yyy5y33w31rcxhueeupihuwityiiiltksiitt",
"313t77333337uidlz;5yy55yyyy555yy3,303txppuqqqeweu1ww5ttiz9uyuit7",
"1333t7313337uslnZ;tt5y55yy5y55y5q,q,1ujiueqewqqqw5qqwwtsb3tuuiiu",
"33tuaiut333tukMNK&5t5yyyy8y55y5q,333wicdywwwewq,55twwuukk1uttusa",
"tt77765711<7ukkzF*5uyyy8hhhhy5y5qtwwtdmuiywqwewqq;iyuahkk$auuass",
"**>2<6>**==*5akhl;&a5555555-55-;===,,,>O===,,--,;%;;;55;*@%*>>>*",
"3tukkkzzMIl9FFFzzlkzlh9kkzk9Mzhyyeqqqqqqyiiifwwetw3wtti5ta45itt5",
",3wutkkkMZZkzlkaaaii9hshkzlkzzhhyeeqqqqeyfhwqqq,qw15wq5wtu5aitww",
"311wuklklBzklkhtttyt8ysyhzzlzhyyyq50qqqeyijqqqq,1q3q11q1wy7tatww",
"111ww9kMklkalkiwqtttysts9kzzzhyyfeqqqqyfyfp,0q3,1-1q1-13wkuustww",
"5555takzllk5liitttttutuyshzlzhyyyyyqqyihhgu,qq,,q-1,,,q1ta7tsiut",
"qwquuakkll88zkutiuiiys8s8hzlzzhhffyyqyfhjgi,qqqqwq-q,,3wts7tsssu",
"siutskkllza%zksiuskkkkhh5hkhzhhhhhhyeyhjjjfweeewttwqqqttak1<hhhk",
"w5;;t8tutst#5;;;-555tu8;.;4-5-55-#----ttuu,>33<-,-;%##;<55;#;;55",
"lluzFzzjhzhhhyyyyli5MMMkakkkh8ytt1ippxxxvxmxvpuudz7153wssiuuuisa",
"ilhzAjhyytyeweqyyzwkMzlzllzlhtttduttupdxdpmxu333iMu7wwtuiuautiii",
"shilzhfyq0q000qyyziullssusiiyt5yt1q11wrppuvpu3337b7115wttutttuis",
"hlsijhyeq000,0qyylaukkiutusty55qt3q,,3uuutuur3,23k71<<5wwtwwtuii",
"hzdyhyywq00000qeelwtlhsu5yys555qww5,,3wutwruu323ud66111w5wwq5yuh",
"hzydzhytq0000qqqehqwlhsuyt5yy5q5t5w,,3www27r73,3ux3331w5w5w5ttyh",
"lzijAhiyeqqeeeeeyh55zkiuy55yy555uwt1,13w3>2w73277s3<7t3wtww5tiih",
"ti33tqqq--+==--,--=@555545555;-5<==#Ooo%>>>:+:++><$$=%=%;;-=#;55",
"rirq3eerewr>wurq----5-5yuaM7iu7rtw3,337t9vv6773<<<><167uikhtlkhi",
"frerggrrifpwhgiqqq-5q55yudv7auuutw33qw7upvC6u73>====<37uukk5Fzzl",
"eeeerrrergiqfeq3-----qttuab7ptww31<<,3wtapv<772>=+O==>1ttak@zzyi",
"eeeqrrrrrgrqieq,-0-0--qqwkM3siww,-<,,3337va:77>>=#%O==215uk@hhhy",
"eeeerrrrrry,ieq-------05whl4iaw3,,>,>>337vv:71==OO#+O>>11ta#hhyi",
"rrefggfrrfi3feq,--0---qqukl5atw3,>,>,31t7dv:711==OO=%=>1577;hhfh",
"ggfjcgxgcgp3iyyq50qq5q5tukz4parw3,,2,33ruvk:u33<======<3ttu;jhhj",
"-qer,>>trewO-3wq5;--q5w5taa*<<:>>+%>%:>:<26X>*%#ooO%oo%:<17.q,qw"
};
