/* XPM */
static char *caab07d6caad433ce7c5bb85a78a96735ZXyUzqnk7IA0g3z[] = {
/* columns rows colors chars-per-pixel */
"64 64 251 2 ",
"   c #262626",
".  c #2B2B2B",
"X  c #333232",
"o  c #3C3B3B",
"O  c #3A3737",
"+  c #312F30",
"@  c #1E1E1E",
"#  c #423E3E",
"$  c #483E3E",
"%  c #43403F",
"&  c #433F40",
"*  c #454342",
"=  c #4B4344",
"-  c #4B4B4A",
";  c #4C4947",
":  c #514646",
">  c #544B4A",
",  c #5A4D4D",
"<  c #524847",
"1  c #55504F",
"2  c #545352",
"3  c #5C5252",
"4  c #5C5B5A",
"5  c #6B5554",
"6  c #655858",
"7  c #725B59",
"8  c #624E4F",
"9  c #72615E",
"0  c #6C6463",
"q  c #6C6C6C",
"w  c #656363",
"e  c #756464",
"r  c #7B6464",
"t  c #746C6C",
"y  c #7B6A6A",
"u  c #747373",
"i  c #7C7574",
"p  c #7C7B7B",
"a  c #7A7778",
"s  c #7A706F",
"d  c #705F60",
"f  c #E41B1B",
"g  c #E91718",
"h  c #F41718",
"j  c #F31919",
"k  c #F51818",
"l  c #ED0D0E",
"z  c #EC1F21",
"x  c #DB2728",
"c  c #DC2F31",
"v  c #DC3434",
"b  c #DB3B3C",
"n  c #D8383A",
"m  c #E42C2D",
"M  c #E92627",
"N  c #FC2323",
"B  c #F82B2A",
"V  c #E92D31",
"C  c #E23334",
"Z  c #E73739",
"A  c #FC3334",
"S  c #F63A3B",
"D  c #F22F30",
"F  c #E21818",
"G  c #E7403D",
"H  c #DB3E41",
"J  c #D63E40",
"K  c #EC3F40",
"L  c #995857",
"P  c #BB4B4B",
"I  c #A75B5C",
"U  c #B45B5B",
"Y  c #B85757",
"T  c #B44F50",
"R  c #AF5F60",
"E  c #826D6C",
"W  c #876A69",
"Q  c #88716E",
"!  c #816F71",
"~  c #847474",
"^  c #8C7473",
"/  c #827D7C",
"(  c #8C7C7D",
")  c #887877",
"_  c #937474",
"`  c #937B7B",
"'  c #9C7C7C",
"]  c #977677",
"[  c #976B6B",
"{  c #A76969",
"}  c #B66768",
"|  c #AC7C7C",
" . c #A77878",
".. c #B57B7B",
"X. c #BB7B7C",
"o. c #B97576",
"O. c #B16F70",
"+. c #C84A4B",
"@. c #D44344",
"#. c #DB4244",
"$. c #D44C4D",
"%. c #DB4A4B",
"&. c #D74649",
"*. c #D84D51",
"=. c #CD5C5B",
"-. c #C75656",
";. c #D35355",
":. c #DC5254",
">. c #D35A5B",
",. c #D95759",
"<. c #C34F50",
"1. c #E74849",
"2. c #F34344",
"3. c #F7494A",
"4. c #E54D50",
"5. c #E35354",
"6. c #E95859",
"7. c #F75656",
"8. c #F05251",
"9. c #C6615F",
"0. c #D2605E",
"q. c #DF5E64",
"w. c #F65F61",
"e. c #C46363",
"r. c #CB6462",
"t. c #C46C6C",
"y. c #CA6B6B",
"u. c #CC6866",
"i. c #D66465",
"p. c #C37374",
"a. c #C57878",
"s. c #DA7777",
"d. c #C6706F",
"f. c #E86768",
"g. c #F86768",
"h. c #E77878",
"j. c #F97777",
"k. c #E66F6F",
"l. c #87807F",
"z. c #9A807F",
"x. c #A2807E",
"c. c #B6807E",
"v. c #B9807F",
"b. c #E6807E",
"n. c #8A7F80",
"m. c #917F81",
"M. c #A97F81",
"N. c #B37E80",
"B. c #CC7F80",
"V. c #EC7E80",
"C. c #858383",
"Z. c #8C8484",
"A. c #8E8B8A",
"S. c #8A8887",
"D. c #948283",
"F. c #9B8383",
"G. c #958C8C",
"H. c #9A8C8C",
"J. c #938787",
"K. c #99908F",
"L. c #949494",
"P. c #9B9999",
"I. c #A48383",
"U. c #AA8384",
"Y. c #A58B8A",
"T. c #AC8C8C",
"R. c #AB8788",
"E. c #B48484",
"W. c #BA8382",
"Q. c #B38B8C",
"!. c #BA8A8A",
"~. c #B58788",
"^. c #B88F91",
"/. c #A79696",
"(. c #B69596",
"). c #A3A3A3",
"_. c #ABABAA",
"`. c #B4B4B4",
"'. c #BCBCBC",
"]. c #BCB5B5",
"[. c #B6AAA9",
"{. c #C58585",
"}. c #DD8788",
"|. c #DD8F91",
" X c #C79798",
".X c #D59C9B",
"XX c #DC9B9C",
"oX c #DA9495",
"OX c #E38384",
"+X c #E48B8C",
"@X c #EA8687",
"#X c #F48787",
"$X c #E38F92",
"%X c #E39699",
"&X c #E69798",
"*X c #F89799",
"=X c #F98E91",
"-X c #D2A19E",
";X c #EAA19E",
":X c #CDABAC",
">X c #C5A7A7",
",X c #D3A2A5",
"<X c #DEA3A3",
"1X c #D2ABAD",
"2X c #DDACAB",
"3X c #D7A7A8",
"4X c #C9B1AE",
"5X c #CEAFB1",
"6X c #CBB4B3",
"7X c #C6BABA",
"8X c #D5BCBB",
"9X c #D6B4B4",
"0X c #D8AEB1",
"qX c #E4A3A4",
"wX c #E9A8A9",
"eX c #F7A6A7",
"rX c #E7B7B8",
"tX c #F7B6B6",
"yX c #E7B0B2",
"uX c #E19BA2",
"iX c #CDC0BF",
"pX c #F9C0BE",
"aX c #C9BFC0",
"sX c #ECBCC1",
"dX c #CBCBCB",
"fX c #C8C3C3",
"gX c #D7C5C6",
"hX c #D4D4D4",
"jX c #DCDCDC",
"kX c #DCD3D4",
"lX c #D9D0CF",
"zX c #E7C7C7",
"xX c #F5C8C7",
"cX c #EBD7D7",
"vX c #F3DDDD",
"bX c #F4D6D6",
"nX c #EECED0",
"mX c #EBE0DF",
"MX c #F5DFE0",
"NX c #E2E2E2",
"BX c #E6E6E6",
"VX c #E5E4E3",
"CX c #EDE5E5",
"ZX c #E9E9E9",
"AX c #EDEBEB",
"SX c #EAE8E7",
"DX c #F2E3E3",
"FX c #F4EAEB",
"GX c #F3E7E8",
"HX c #F9F8F8",
"JX c #F7EFF0",
/* pixels */
"`.'.'.'.fXfXdXdXhXjXNXNXNXjXjXBXBXAXjX).4 q 2 .   . . . . X . . . . .   ; `.).;   . . .   - C.C.)._.`._._.).fXZXBXBXBXBXBXNXBXBX",
"`.fXdXhXhXjXjXNXNXNXNXNXNXNXNXBXZXhXq - q a O     X . . . . .   . . . . .     X   .       . C.P.A.L.)._.`.).].ZXNXNXBXBXBXBXBXBX",
"'.NXNXNXNXNXNXNXBXNXBXNXBXBXNXBXjXq p 2 . @ . X . X X . .       . . . . . .     . . . . .   ; ).).P.P.L.).).].ZXBXBXBXBXBXNXNXBX",
"'.jXjXjXjXNXNXNXBXBXBXNXjXhXhXjXp u u . . . X X . . . .     . . . . . X .   . . . . . . . .   q L.L.L.P.L.L.`.ZXNXBXBXBXBXNXBXBX",
"`.jXNXjXNXNXNXNXNXVXhXdXdXhXBX`.4 ;     + . . .       . .   . . . . . . X   . . . . . . . . . . q A.P.).).L.P.jXBXZXBXBXBXNXBXBX",
"`.hXNXNXNXNXNXNXNXhXhXZXNXjXfXw O   . . o . .   . . . .           . .   . . . . .           . .   ; S.).`._._.dXhXZXZXZXZXBXBXBX",
"].hXBXNXBXBXBXZXhXNXZX_.A.C.; . . . . O X     . X .                     . . . . .       . . . X X   o p P._.).ZXhXhXZXBXBXBXBXBX",
"].hXBXNXNXBXZXjXhXBXq ).`.o   X X . o o . . . X X     . . . . .   . . . . . . . . . . . . . . O o o . ; p A.C.`.jXhXNXZXBXZXZXBX",
"].hXBXNXVXBXZXdXJXP.).JXq O O + X . o O . . . X . . . . . . . . . . . . . . . . X . . . . . . O o o o O w L.).'.`.jXhXZXZXZXZXZX",
"].dXZXNXNXBXjXjXdXP.'.- . o o X X . . . . . . . . . . . . . . X O o - 2 2 1 ; ; ; ; o . . . . O o o o O ; L._.jX`.hXjXNXBXBXZXZX",
"'.dXZXBXBXBXhXhXu p X o o o o O o O . . . . . . . . . . . X ; w q u a p p p q u u q 4 - O . . X o o O o O 2 L.'.`.jXhXjXBXBXZXZX",
"'.dXZXZXBXBXhXL.C.q ; ; O o o o ; O . X X X . X X . . O ; 4 q a a p p a p p p p a u u q 4 o X X O o o o * o o L.BXBXhXjXBXZXZXZX",
"aXdXZXBXBXZX`.a w w 2 o o o * * * O O X + X + X O o > 0 q a a p p p p p C./ / p a u u u t 2 o O O o o o o ; o 2 '.VXjXjXBXBXBXZX",
"aXfXBXBXZXcX/.C.- w & o & # # o * o # & O X O = 4 q a p a p p p n.C.C.C.C.S.Z.C.C.p a a a q * o O O O o ; & * * ; L.dXjXZXBXBXZX",
"fXfXNXVXAXhX'.q 4 - o # * * # o # o o # o O ; 4 w q a p p p p / C.Z.Z.C.C.S.C.l.C.C.p p p a 4 o O o o O - 4 > - % / P.BXVXVXBXZX",
"fXfXNXVXBXJXP.= 1 * * * o o * o o o o o o o - 4 w 0 a p / / / l.C.S.A.Z.Z.A.S.Z.Z.C./ l./ p t * O % - * % 2 w - # p _.JXBXSXSXSX",
"fXfXcXSXBXBXw 1 ; * * * # % * # # % * o O # 2 6 0 0 t p / / / C.C.Z.A.A.A.A.G.K.G.Z./ C./ / p 1 o * * # # ; - 1 = 6 7XJXBXSXBXBX",
"fXfXcXBXAX].0 6 = = * $ * = = * $ * = # o $ 2 6 0 0 t p / / / / C.C.Z.Z.A.A.A.G.G.Z.C.C.C./ a 6 # = * $ * = = > = u JXCXBXBXBXCX",
"fX7XjXCXAXL.`.6 = = = = = = = = = * = $ # $ 3 0 t t t i / / C.C.Z.Z.J.G.G.G.G.G.G.G.Z.Z.C./ i 0 = = = = < < = , = ).HXCXCXCXCXCX",
"fXaXkXCXGX].7X, < < < < = = = = = = = & $ = 3 0 t i i / C.Z.Z.Z.J.Z.J.G.G.G.G.G.G.G.G.G.Z.n.( 0 = = = = : < : , = [.JXCXCXCXGXGX",
"fXiXkXCXCXkX/.3 < : , < : : = = = = = = $ = 6 e t i i Z.G.G.G.G.G.G.G.G.G.G.H.K.G.G.G.G.Z.Z.Z.i = = = < < < < 3 = [.FXCXCXCXGXGX",
"fX7XlXCXmXGXiX6 : : < , , : : : : : : = = , 0 t s i / ~ t t t t i Z.J.G.K.K.K.H.K.H.G.G.G.G.G.Z.3 = < > , , , < 6 fXGXCXGXCXCXCX",
"fX7XlXCXCXCXJXl.: , > > , > : > : : : : > 0 i i i ~ ~ 6 > : > > > 3 6 t l.K.K.G.H.H.H.Z.( i 0 0 3 < > , 3 1 , 3 /.cXGXDXDXCXDXDX",
"gXiXgXCXCXCXFX[.> 3 , , , , > > > > : > 0 ~ ~ ) ) l.6 , 6 e t t t 0 6 e s ) Z.H.H.G.Z.~ 0 , , , , , > : , , 3 t [.FXDXDXDXDXDXDX",
"gXfXgXvXmXCXcXlX6 , , > < > > , , > > 6 ) ( m.Z.G.) 0 ) D.D.D.Z.( ) s ) ( ) ( D.G.( t i e 0 i ~ 6 6 Z.t 6 8 e /.gXFXDXDXDXDXDXDX",
"gXaXgXvXvXvXvXgX7 , , 5 5 > , , , , , 5 ~ D.G.G.J.! J.H.D.( ) ) ) ) ! ~ ) ( m.( ( ( ! s s ) m.D.~ ~ /.4X7X7XgX7X7XGXDXCXDXDXDXDX",
"gX8XgXcXgXgX6Xy 5 8 y F.D.e 8 8 5 5 5 5 5 5 5 y ~ ` E e e y ~ ) ~ e e e y ~ H.F.J.( y e e E ~ ! ~ E ~ e d e /.7X6XDXDXDXDXDXDXDX",
"8X8X8XcXcXgXgX` 5 7 E r ( F.r 5 5 5 5 E ` ^ E E ^ E 7 ^ H.F.` ` ` ^ E r y e ) D.` ~ r e ) F.F.F.` D.6X6X4X5 (.6X4XvXDXvXvXvXvXvX",
"8X8X8XnXcXbXGX(.5 r E Q ` ] ` 7 5 5 7 ` Y.Y.Y.F.' _ r ^ E 7 5 5 Q E E E ^ ^ 7 E Q 9 9 r 7 9 r r Q Y.4X8X6X/.8X4X>XcXvXvXDXDXDXMX",
"8X8X8XzXbXcXvXF.5 W ^ z.Y.^ _ ^ W W W I.T.Y.Y.Y.F.' ] W r r 5 W (.' W ^ ^ ' W Y.Y.W W W 7 5 _ ` r F.6X6X[.>X6X6X>XcXvXbXnXzXgXiX",
"8X8X9XzXbXnXbX>X5 W ] Y.I._ ] ' ] W Q I.T.T.T.T.Y.I.z.] ^ ^ ^ ' ' ' I.I.' ' ' T.(.] _ ' ] ^ F.^ ^ T.6X6X>X>X6X6X>X8X8X6X4X5X4X4X",
"9X9X9XzXbXnXnXvX>XW ' T.' ' _ ' ' ' _ R.T.T.T.T.T.R. .' ' ] _ _ ] ' x.x.' Q I.(.(.I.W I.' ] Q W _ R.:X9X>X:X5X6X:X:X:X5X5X9X9X9X",
"9X9X9XzXnXnXnXbXnXW x.R._ [ W ] x.I.' R.Q.Q.Q.^.^.Q.I.I.R.M.M.I.I.I.I.R. ._ R.(.(.Q._ I.I.' ' '  .I.:X:X X:X:X:X:X:X1X1X5X5X5X5X",
"9X9X9XrXnXnXxXxXbXQ. .U.[ [ ] ' Q.R.U.R.Q.Q.Q.^.^.Q.R.U.Q.R.R.R.R.Q.Q.Q.U.| Q.Q.(.Q. .U.Q.U.I.U.M.| 1X>X>X1X:X1X,X:X1X1X1X1X1X1X",
"0X9X2XrXxXxXxXxXbXrX .| [  . . .Q.~.~.Q.Q.Q.Q.Q.^.Q.Q.U.~.Q.Q.Q.^.^.^.Q. . .Q.Q.^.^.M. .Q.Q.~.~.R.|  X X,X1X,X1X,X1X1X1X1X1X1X1X",
"2X2X2XyXxXxXxXxXxXrX| E.[ [  . .| E.~.E.E.E.~.!.Q.!.~.E.E.E.!.!.!.^.!.|  .E.Q.~.^.^.E.| N.~.E.E.N. . X3X,X,X,X,X,X,X,X,X3X3X3X3X",
"2X2X2XyXxXxXxXxXxXxXW.| .. .{ {  .W.W.W.c.c.E.W.W.W.W.W.W.W.W.W.E.E.| | E.!.!.!.!. X!.W.N.E.E.E.|  . X,X,X,X,X,X,X,X,X3X2X2X2X2X",
"<XqX<XwXtXpXpXpXtXxX X{ W.{.W.{ O.W.W.v...............c.W.W.W.c.c... .O.c.c.W.W.W.W.........c..... . X.X.X.X.X.X.X-X2X2X<X<X<X<X",
"qXqX<XqXtXtXtXtXyXyXXXL W.{.......W.W.W...................X.W.W.X.X...O.O.{ { O.....{ O..............X.X.X.X.X.X.X.X<X<X<X<X<X<X",
"<X<X<X<XqXqXXXXXXXXX<X{ { {.X...o.X.{.X.X.....X.X.........X.X.X.X.W.{...O.O.{ O.O.O.{ X.X.X.X.X.o.X.XXXX.XXX.XXXXXoXXXXXXX<XqXqX",
"%X%XXXXXXXXXXXXXXXXXqXB.L O.X.o.O.o.a.X.X.X.X.X.o.o.o.o.o.X.X.a.X.B.v.X.{ { { { { I I O.X.X.X.X.O.{.XXoXoXoXoXoXXXoX%XwXwXeXtXtX",
"%X%X%X%X%X%X%X%X%X%X&X%XI L { o.p.o.a.a.a.o.o.o.o.o.o.o.o.X.a.a.a.o.O.} I I I I I I I I O.a.a.o.O.{.oX|.|.oXoX|.oX|.eXtXtXtXtXtX",
"%X$X%X%X$X%X$X$X$X%X$X&Xa.I I p.a.a.p.p.p.p.p.p.p.p.o.p.p.p.a.p.} R I I I I R } } } I I I } o.p.o.}.|.|.|.|.|.|.|.|.eXtXeXeXeXeX",
"+X+X+X+X+X+X+X+X+X+X+X$X}.U U p.a.a.d.p.d.d.p.p.t.t.t.t.t.p.p.} U U U U } } } } t.t.} U U U } t.t.}.+X}.+X+X+X}.+X}.&XeXeXeXeXeX",
"+X+X+X+X+X+X+X+X+X+X+X*Xs.T U d.y.d.d.y.t.y.y.y.t.t.t.t.t.y.t.U Y Y U U U U U U U U U U U Y U } t.+X}.}.OX}.}.}.OX}.$XeX*XeXeXeX",
"@XOXOXOXOXOX@X#X=X=X=X@X=.T Y y.y.y.y.y.y.y.u.y.y.e.e.e.e.u.e.Y T Y Y Y e.e.e.e.e.e.e.Y Y Y Y 9.y.OXOXOXOXOXOXOXOXs.@X*X*X*X*X*X",
"h.h.h.h.@X#X#X#X@X@X#Xr.T Y Y u.u.u.u.r.r.r.r.u.r.r.9.9.r.r.9.T T Y -.-.r.r.u.u.y.y.r.9.-.T T =.s.b.h.h.h.h.h.h.h.h.V.=X=X=X*X*X",
"h.h.h.h.h.h.h.h.h.h.#X0.P P P =.r.r.i.r.0.r.>.>.=.=.=.=.=.=.=.<.P =.=.-.-.-.-.=.=.-.-.=.=.P -.r.h.h.h.OX+X+X+X+X$X+X$XeXeX&X=X=X",
"h.h.h.k.k.j.j.j.j.#Xf.<.<.P P ;.>.0.>.>.>.=.>.>.>.>.>.>.=.=.>.<.<.=.>.=.-.<.P P <.<.<.=.=.<.=.>.k.k.k.bXHXHXHXHXJXHXHXHXHXJX*X#X",
"k.k.k.k.k.j.j.j.j.#X>.+.$.+.+.$.>.>.>.>.;.;.;.;.;.;.;.;.;.;.;.;.;.;.;.;.;.-.<.+.+.;.;.;.;.;.>.>.f.k.f.vXHXHXHXFXzXJXAXHXHXHX*Xj.",
"f.f.g.f.g.j.j.j.j.j.$.$.$.$.+.@.*.:.:.;.;.;.;.;.;.;.;.;.;.;.;.;.;.:.,.,.,.,.,.,.,.,.,.;.;.;.,.;.f.f.f.MXHXrX<Xd.9X2X.X<XuXzX*Xj.",
"f.f.g.g.f.j.j.j.j.f.@.&.&.&.&.@.@.*.*.*.*.$.$.$.$.$.*.$.$.$.$.$.:.:.:.:.5.5.5.5.5.5.:.:.$.:.*.$.6.g.6.vXkXrXzXcXFXcXnXcXnXGX#Xj.",
"6.6.6.6.6.g.g.g.g.%.@.@.@.@.@.@.@.@.%.%.%.&.@.@.@.@.&.%.&.%.%.%.%.%.%.%.%.4.4.4.%.%.%.%.&.6.%.@.6.w.6.rXcXGXGXGXGXGXFXFXJXvXj.g.",
"6.7.7.7.7.w.g.g.g.#.H #.H b b J b n n H #.#.#.H H H @.#.#.#.#.#.#.#.&.&.&.#.1.1.1.&.#.#.#.4.1.H 4.7.6.6.6.6.6.6.5.s.oXf.g.g.g.g.",
"8.8.8.8.8.7.7.7.7.1.n b b n n n n n n @.@.H b H H b b b n b b #.%.H H b b b b H H b n b 1.1.1.b 1.8.4.8.8.8.8.8.3.@X%X7.w.w.g.7.",
"3.3.3.3.3.7.7.7.7.C C v v v v v C C x %X>.c :.v C C C C C v c ,.&Xc C C v v v n n n n H 1.1.1.n 1.8.1.8.3.8.8.8.2.f.wX3.7.7.7.7.",
"3.3.2.3.2.3.3.7.3.C Z C v v v v x v x wX>.F >.s.v C C C C C m ,.qXx C c i.@.c c v v Z Z Z Z K v Z 2.2.2.2.2.3.3.S f.wX2.7.7.7.7.",
"2.2.2.2.S S 3.3.2.m m m m b :.x #.v f qX:.c qX}.m C C V V m z ,.&Xx m v s.*.v n m m m Z Z Z S C V S 2.S S 2.S D S f.wXS 3.3.3.3.",
"S S S S S h.3.S D g f.5.f b v %XqXuXx qX#.5.%XF 4.m m m M Z b :.&Xl :.b %.#.k.k.f f.m M V M S f.Z f.D 6.8.B k.wX1.6.wXD 3.3.2.3.",
"A A A A Z zX6.m C :.cX+Xn nXzXs.@.zXn &Xi.n zXrX}.x M M M 1.&X%.yXx rX}.%X&X$X&Xb sXx M M 4.8.M m sX5.wX$X4.zX<X&X4.wXD S S S S ",
"B B B A B f.yXqXqX&Xq.qXyXuXrXqXwXq.l 5.rXqX+X1.f f z j l 5.wXf %XyX&XyXwXwXrXwXrXk.g M l &Xf.l g sXzXwXwXrXrXyXh.2.+XB A A A A ",
"B B B B B j g 4.G l l g z l g M g g j g f f l g g g f Z f.rX4.h g M g f f f f g M %.z j l s.qXZ OXqXM i.,.M D G N B M B A A A A ",
"N N N N j j k M M h j j j j j h j j h j h h j j j j g OX+XZ l j j h j j j j j j j M g g j g h.qX@XD N D D N N k N N N N B B B B ",
"N j N j j j j k k j h j j j j j j j k k h h h j h j h l l h j j j j j j j j j j j h g h h k l l l k N k j N N N N N N N N N N N "
};
