/* XPM */
static char *_8a53bf67307402ebd32fae8871c24acTG7AX1peMVEoxwRd[] = {
/* columns rows colors chars-per-pixel */
"64 64 250 2 ",
"   c #1C1816",
".  c #16130F",
"X  c #231D1A",
"o  c #221B17",
"O  c #2B241D",
"+  c #2E291F",
"@  c #26211C",
"#  c #30281F",
"$  c #2C2621",
"%  c #2E2A21",
"&  c #262120",
"*  c #312721",
"=  c #332C24",
"-  c #3B2D25",
";  c #382E29",
":  c #353026",
">  c #383126",
",  c #373128",
"<  c #3B332B",
"1  c #3E382E",
"2  c #3E3831",
"3  c #412E27",
"4  c #43352B",
"5  c #42392E",
"6  c #49362C",
"7  c #53392E",
"8  c #433C32",
"9  c #4B3C32",
"0  c #453A35",
"q  c #533D33",
"w  c #5B3D34",
"e  c #543D38",
"r  c #623D34",
"t  c #4C4136",
"y  c #4C443A",
"u  c #484238",
"i  c #534235",
"p  c #53453A",
"a  c #5A443A",
"s  c #54493E",
"d  c #5B4A3D",
"f  c #594435",
"g  c #634C3C",
"h  c #67463A",
"j  c #72493D",
"k  c #68543E",
"l  c #73533F",
"z  c #544C43",
"x  c #5C4C42",
"c  c #594945",
"v  c #5C5145",
"b  c #5C5349",
"n  c #565448",
"m  c #524A45",
"M  c #634D43",
"N  c #6B4D43",
"B  c #674D49",
"V  c #784E42",
"C  c #635344",
"Z  c #6C5443",
"A  c #63554A",
"S  c #6B544B",
"D  c #655A4C",
"F  c #6B5A4B",
"G  c #6C5C46",
"H  c #73544B",
"J  c #745B4C",
"K  c #7C5B4A",
"L  c #785545",
"P  c #6D5552",
"I  c #6C5D52",
"U  c #675A52",
"Y  c #7B5C53",
"T  c #745B57",
"R  c #77654A",
"E  c #6C6153",
"W  c #6D655A",
"Q  c #736454",
"!  c #73645B",
"~  c #7C635C",
"^  c #74695C",
"/  c #7C6B5C",
"(  c #7C6454",
")  c #7D7453",
"_  c #746C63",
"`  c #7A6A65",
"'  c #7C746C",
"]  c #7B7165",
"[  c #78716C",
"{  c #785F60",
"}  c #845C4B",
"|  c #865949",
" . c #835E52",
".. c #895F55",
"X. c #935D4F",
"o. c #87634C",
"O. c #94644E",
"+. c #96674F",
"@. c #8B6453",
"#. c #8C655B",
"$. c #846C5B",
"%. c #866657",
"&. c #946552",
"*. c #9A6652",
"=. c #946A55",
"-. c #9C6A54",
";. c #946C5C",
":. c #9C6D5A",
">. c #94675A",
",. c #83715D",
"<. c #9D735D",
"1. c #94715C",
"2. c #837D49",
"3. c #A06D57",
"4. c #A26E5A",
"5. c #AC6F5D",
"6. c #A4725D",
"7. c #A9745F",
"8. c #A87A5E",
"9. c #876B66",
"0. c #936B62",
"q. c #966F69",
"w. c #847363",
"e. c #8B7966",
"r. c #8D7D6A",
"t. c #87756B",
"y. c #9C7363",
"u. c #97776A",
"i. c #837B73",
"p. c #867B77",
"a. c #977B76",
"s. c #816F71",
"d. c #A37563",
"f. c #AB7661",
"g. c #AC7B64",
"h. c #A47C6A",
"j. c #AC7D6B",
"k. c #A67967",
"l. c #B27B65",
"z. c #B27E6A",
"x. c #BA7D68",
"c. c #A37B74",
"v. c #A66E61",
"b. c #9C9559",
"n. c #8C8550",
"m. c #A49B5D",
"M. c #ACA35D",
"N. c #AFA95E",
"B. c #B1A75E",
"V. c #93816D",
"C. c #9B836E",
"Z. c #89827C",
"A. c #958472",
"S. c #9B8A75",
"D. c #9A8679",
"F. c #998B77",
"G. c #AC816C",
"H. c #A98168",
"J. c #B18166",
"K. c #B4826B",
"L. c #B9856D",
"P. c #B8896E",
"I. c #A88679",
"U. c #B48473",
"Y. c #BB8671",
"T. c #B58A73",
"R. c #BC8B73",
"E. c #B98A7B",
"W. c #A5927C",
"Q. c #B9927C",
"!. c #B4A864",
"~. c #B1A862",
"^. c #C2886D",
"/. c #C48C75",
"(. c #C48D7B",
"). c #C58976",
"_. c #C49275",
"`. c #C4937C",
"'. c #CC947D",
"]. c #CC9A7A",
"[. c #CA9777",
"{. c #D29A7B",
"}. c #D7A17E",
"|. c #8C8683",
" X c #8D8886",
".X c #928D8B",
"XX c #978884",
"oX c #98918C",
"OX c #9D9B9B",
"+X c #989593",
"@X c #A78A85",
"#X c #B48A83",
"$X c #AC9A84",
"%X c #A79686",
"&X c #B59689",
"*X c #A59996",
"=X c #B89B95",
"-X c #B4A28D",
";X c #BBA38F",
":X c #A6A19D",
">X c #B9A997",
",X c #B3A592",
"<X c #A19FA1",
"1X c #A5A3A5",
"2X c #ABAAAD",
"3X c #AAA5A5",
"4X c #B7AAA6",
"5X c #BBB0AC",
"6X c #B6B6B8",
"7X c #AEAFB2",
"8X c #CC9682",
"9X c #CB9B83",
"0X c #C89987",
"qX c #D49C87",
"wX c #C29C93",
"eX c #D4A48C",
"rX c #C8A997",
"tX c #D6A796",
"yX c #C6AF98",
"uX c #C5ACA5",
"iX c #C5B6A5",
"pX c #D5B3A8",
"aX c #C6BAB5",
"sX c #D4B3AA",
"dX c #E1BBA9",
"fX c #E1B396",
"gX c #CDC3B7",
"hX c #D7C7B8",
"jX c #D1C2AE",
"kX c #E8C8B8",
"lX c #BDBDC2",
"zX c #C0BDC3",
"xX c #BEC0C4",
"cX c #C7C4C7",
"vX c #D7CDC8",
"bX c #DAD1C9",
"nX c #D1CFD1",
"mX c #DBD5D3",
"MX c #DAD7D7",
"NX c #E8D4C7",
"BX c #E3DDD9",
"VX c #F3DACD",
"CX c #E9E2DD",
"ZX c #F4E3D8",
"AX c #ECE8E6",
"SX c #F3ECE8",
"DX c #F5F1EE",
"FX c #F6F3F1",
"GX c #FFFFFE",
"HX c #FAF8F5",
/* pixels */
"> X O O O @ @ O O @ O O @ O O O O * O O O O O O * * - 4 < < > > > > < > < < < < > 5 8 8 s D / w.w.w./ E D b v b v n z n n v b I ",
"> @ O O O O O @ O O O O O * # O # - = # - = - < 6 8 > 6 8 9 t 9 9 t A p = > < > 1 1 8 p A Q / w./ Q F A v v z s z z z z z z z U ",
"< @ O O O O O O O O O O O * * * - - - 4 9 9 9 t s s 8 4 8 < 8 y t 9 s Q F 6 ; 1 5 5 p C I Q ^ ^ E A v v z s s y y y z z z z m F ",
"4 @ O O O O O O O O O * O * = = = 4 p p t t 9 9 p v p t 6 9 s 4 8 p i A e.e.D y s Q A.e.Q E E F v x z s s y y y y u y m m z y D ",
"< @ O O O @ O O O O O # * = * = 9 t s s 9 t i t t p p p t v i 8 p v s F Q r.W.w./ V.$X$XS.w.~ / A p p y y y u y y y u 0 y s y S ",
"4 @ O O O O O O O O # # * - = ; d t A s 4 9 x p p p s s s v s s A D A ,.r.e.A.S.S.A.S.S.W.S.w.r.e.d y y t 0 u u u 0 0 8 0 y y S ",
"4 O O O O O O # O O * * * > 5 4 d x F Q p t A v v v v A d d F w./ / w.F.W.r.r.e.A.S.S.r.V.W.S.e.V.,.p 8 0 0 u 0 0 0 8 8 8 0 0 C ",
"4 O O O O O O # # * * - = - x I / / / $.D p x A D A A x x D ^ Q ` w./ A.S.W.e.w.r.A.V.e.w.w.e.V.V.V.v 2 8 0 8 8 8 8 0 8 8 0 2 x ",
"4 O % + + + + * = * - = 4 y A w.W.%XA./ Q I x d x v F d x Q x s C F C r.V.S.S.V.e.r.e.w./ w./ e.S.$Xw.t 2 8 8 8 8 8 8 8 8 8 < x ",
"4 O = * * # * * - * = > t ! w.V.S.S.A./ I Q C t p Q I s d F i 9 C C A w./ S.W.r.w.,./ / / / / V.S.W.S.Q y 8 8 8 8 8 8 8 8 8 < d ",
"6 O * * * * = = < 1 t A I w.$XW.A.V.,.Q M d 9 6 v $./ d p C i d d x F Q Q r./ Q Q D E F E / w.V.S.$X$Xr.F t 1 8 8 8 1 8 8 8 1 C ",
"6 * = = = = - ; - 0 E e.W.$X$XS.V.V.,.F M 6 4 4 i M Q F 9 C C d M C I F / / C d C d x v D F / e.A.-X-XW.w.A 8 1 5 1 5 8 5 5 < C ",
"9 = - - - - = - - y ] A.W.-X$XV.e.S.,.C d q 4 4 9 q i C i i F F C C C Q / F d f a 9 9 s d C Q w.S.W.$X$XS./ y 5 1 1 1 5 1 5 < x ",
"9 - > - < 8 5 1 y D F.-X-X-X$XS.V.C.$.C C F i q i a i f d i C Z g C F J F C d f i 4 4 9 i g Q e.W.-X$X$XA.F 8 1 1 1 1 1 1 1 , x ",
"9 > < < < 4 t s A r.,XiXiX>X$X%XW.V.$.k J ( J Z k l Z Z d C g Z Z Z Z Z Z g g g g 7 q 9 4 i F / e.S.-X>XA.y 1 > < 1 1 1 1 1 , x ",
"i < < < 4 4 8 y v D.>XiXiX-XW.A.S.e.( Z Z K K o.@.@.%.L Z K o.K K K L L l l L o.R L k 7 3 9 d E / V.$XiX,Xs < < < < 1 1 > < > d ",
"t < 5 5 5 5 9 s ] >XhXhXiX$XW.S.V.$.( J K :.@.} 1.u.#.} } =.=.=.&.&.*.-.+.O.=.-.6.H.<.L f i C F / A.$XyX-Xv < < > > < < < 1 , d ",
"p 1 8 8 5 8 8 s t.,XjXjX>X-XW.S.r.$.( L @.6.k.&.} } | O.*.*.*.:.-.-.4.6.7.f.f.7.K.R.J.g.o.g C Q V.S.$X-X^ 5 < > > > > > > < - d ",
"d 8 9 9 8 0 t s ^ %XyXhX>X-XW.S.r.%.K } =.<.6.6.:.&.*.*.&.&.&.*.-.-.*.-.4.6.7.6.G.Y.H.K.H.o.g E A.%X-X>Xr.8 > , , > > > > > = d ",
"d t t t t p p s E %XjXhX>X>X-XC.$.K } @.d.<.:.6.6.4.*.&.&.O.&.*.-.-.-.-.4.3.6.7.j.K.j.H.K.8.o.g Q V.>XjX>Xv = = - > , , , > - d ",
"C y y p s s s y U >XbXhXiXyX>XC.$.@.@.;.<.:.:.:.-.*.&.*.*.&.*.+.*.*.-.-.*.-.3.6.7.j.J.J.J.J.g.K F w.$XjX>Xi.n u > = - - , , = d ",
"A z z s s z s z _ 4XbXhXjX>X$XC.u.y.;.6.6.6.:.-.-.-.-.*.-.-.-.-.*.-.*.*.*.*.-.4.7.f.l.K.j.J.K.<.Z e.>XjX%Xb y y u 2 < , , , = p ",
"F v v v z z z b W %XbXhXjXyXQ.H.h.h.d.d.d.6.4.6.4.:.-.-.3.4.4.3.-.-.*.+.+.+.*.-.7.7.f.J.L.P.K.P.1.Q F.iXF.y < , , 1 2 1 , > = p ",
"I A A b v v v b b *XNXhXiXrX0XQ.T.T.j.j.j.f.8.6.4.*.*.-.-.*.-.-.-.3.-.+.+.+.*.-.3.8.7.j.L.Y.Y.R.P.%./ ,X%Xt > > : - - , , < : p ",
"Q U D D b v n D ] >XhXiXyXrX&XT.R.T.K.K.K.K.f.7.7.4.:.:.*.*.-.6.7.7.6.4.3.-.-.3.6.7.7.j.L.L.R.Y.R.G.,.%X-Xs > - , , , = = : * p ",
"^ E E U D D D A I :XgX>XyX0XT.P.L.K.L.K.z.l.l.K.l.7.6.:.6.6.6.f.f.f.f.7.f.7.7.6.f.f.f.l.L.P.R.R._.`.C.-XoX8 > , : , = = = = % f ",
"` W W E E I U D U oXhXiXrXT.K.Y.Y.Y.L.L.K.K.K.K.l.g.f.:.6.f.6.6.g.f.7.7.7.6.6.6.7.7.j.L.P.P.P.P._.`.Q.$X%Xy , , = = = - = % + f ",
"w._ ^ ! ! W E E U p.gXaXrXR.L.Y.Y.Y.Y.K.z.f.g.g.l.z.f.4.-.f.f.7.7.7.7.7.6.-.*.*.+.*.:.f.L./._._._._.W.%Xt.8 , = = = = = = = O i ",
"w._ _ _ ^ ^ W W E ] 4XaXrX(.L.Y.Y.Y.L.z.f.7.f.7.f.f.z.f.f.j.l.l.f.4.6.6.*.O.} | | O.+.6.l.Y./.].]._.H.F.A.8 = - = = = = = = % i ",
"t.] ] ] _ _ ^ ^ ! W oXaXrX_.L.Y.Y.Y.K.f.7.d.f.6.7.6.K.f.4.k.g.g.4.O.&.:.| | L } O.O.O.&.:.f.K._.].[.y.w.] 1 = = = % % = = = O i ",
"i.' t.' ] ] _ ^ W W p.aXrX_.P.P./.R.K.K.K.j.j.K.f.4.g.&.| @.&.&.| | | &.| o.=.:.:.&.K k L <.H.P.].].H.A.A , = % % % % + % % O i ",
"p.i.i.t.' ' ] _ _ W _ ,XeXR.R.R.T.U.G.h.h.h.j.G.h.j.:.L h h @.| V j j } @.=.@.L g f a Z @.@.=.G.].].P.w.t - % % % % + + + * O i ",
"Z.Z.i.i.i.' ' ] _ _ _ %XeX_.T.j.H.I.G.u.$.Y J H J H N a 4 N <.@.j q w h g f 6 4 6 f L :.K.G.<.d._.]._.J < = * = % % + # % % O i ",
"Z.Z.Z.p.p.i.' ' [ _ W %XfX`.T.G.T.T.G.d.;.( J M p e e q h L } L h 7 3 4 - - 4 q Z K o.<.Y._.j.j.`.]._.G = # * + % % % % % % O i ",
"XX|.|.Z.p.p.' ' ' [ _ $XfXQ.T.tX`.j.y.#.%.Y S s p 9 e Y ;.d.:.} } L q - 3 3 3 4 7 7 h @.U.K.7.H.R._.[.C + * # # % + + % % O @ i ",
"XX X X|.Z.Z.i.i.' ' [ &XtXQ.T.Q.h.#.( S z p p c p p H :.j.L.l.4.-.>.N 6 - 3 6 # X o - q K *.} -.P.[.].g # * + % % % + + + $ O i ",
"oX.X.X X|.Z.Z.p.i.i.' &XeX9XQ.h.0.$.%.~ T T T S S Y ;.j.Y.^.l.f.6.4.&.V h q a a i i g K y.<.O.8._.{.].Z * , , = * * * + + $ O i ",
"*X+XoX.X X|.Z.Z.Z.p.' ;XeX9X9X0XQ.I.I.I.u.q.~ %.y.j.U.(.8X).x.l.l.l.z.d.:.} h f h N } :.k.6.g.[.{.{.].J 1 < > - = = % % % % @ f ",
"*X+X+XoX.X.X X|.Z.Z.p.yXeXeXeX9X9XQ.G.h.0.#.q.U.`.(.8XqXqX8X).^.).Y.Y.z.z.z.<.K h h Z | O.7.[.}.eX}.{.R 8 > , , = = % % + * O i ",
"*XOXOX+XoX.X X X|.|.Z.pXtXeXtXeX8X8XE.U.j.E.0XeXqXE.R.qXqX8X).).8X'.(.;.@.k.U.K.f.:.&.-.l./.{.^.[.}.{.K - < > = = % % % % * @ i ",
":X:X*XOX+X+X.X.X X|.|.hXdXqXeXeXqX8X8X0XeXtXtX8Xj.| :.'.8XqX8X).8X8X(...w | 4.z.Y././.'.'.^.x.^.^.[.{.J % = * * * * % % % * O f ",
"3X1X1X:XOXOX+X.X.X X|.bXkX0X0X0XqXeXtXtXeXeX8Xd.V h k.).'.qX(.x./.8XY.y.w w X.4.f.L.).'.qX'.).L.L.^.{.L $ = = * % % * % + * O a ",
"4X2X2X1X1XOXOX+X+X.X XBXNX0XtXtXeXtXtXeXqX(.k. .a 0.qX(.'.8Xz.v.z.8X`.R.y.q N &.4.4.7.l.^.'.qX{.^.^.].G $ - = * = = * * * * O f ",
"5X7X2X2X1X1XOXOX+X+X.XMXVXtXtXtXtXtXtX0XE.k.#.S B 8XqX8X(.Y.d.:.d.U.(.'.'.N 7 L &.*.*.4.5.x.'.]._._.].Z O = * * = = * * * * O p ",
"aX6X6X2X2X1X1X<XOXOX.XvXZXpXtXtXpXtXeX#Xc.0.Y c T E.E.U.U.k.>.%.0.y.y.d.G.M 3 h | X.X.O.*.f.(.'._.[.`.g % = * % = = = = * = $ p ",
"cXcX6X6X7X2X2X1X<XOX+XaXSXdXpXpXpXtX&XI.u.9.T B T 9.~ T 9.9.Y Y Y S x M N e 6 w V | | | | 4./.8X[.].R.i % = * * = = = = = = $ f ",
"vXnXcX6X6X6X7X2X1X1XOX5XSXkXpXpXpXwX#Xc.q.` P P 9.u.9.9.! T P S A x x x c M w 7 h V V V | &.R.0X`.8XG.6 % = = = - = = = = = O i ",
"BXMXnXcXcXlX6X6X7X2X1X2XZXNXpXpXuX=X@Xa.9.` P ~ a.D.a.9.` ! ! U A A v A M M M w w h j j V X.U.8X9X9Xy.8 = % * = = = = - * * O a ",
"AXAXBXMXnXcXcXlX6X6X7X2XBXVXpXpXrX=X@Xa.9.T T t.@XI.D.p.[ _ ` ! A v v U D A A M w w r r j ..j.`.8X9X$.> = * $ $ % * = * % * $ a ",
"DXGXFXAXMXMXnXcXlX6X6X6XvXZXdXsXuX=X@Xq.9.T 9.D.@XI.D.a.t.9.! T P A c A A M c M a w w r h | j.8X8XQ.( > = = = = % % $ % % = O a ",
"DXGXGXGXFXAXBXMXnXcXxX6XcXZXhXsXuX=X@Xt.` T D.XX@X@XD.a.u.q.%.Y H S M B B S x x p a w w h | j.(.`.E.C , - - = = % % % % % * O p ",
"FXGXGXGXGXGXFXAXBXMXnXcXcXCXhXsXuX=X@Xa.{ s.@X@X@XI.u.9.T P P B c e e e e e M x p e h r h ..d.G.Q.u.9 - , - = * * = = * % O O p ",
"FXGXGXGXGXGXGXGXFXAXMXmXnXmXNXsXuX=X&Xa.` |.*X%XXXs.9.9.9.9. .T P H H H B e 6 9 p 9 h j j | ;.d.T.Q , , = * * = = = - = = % O i ",
"FXGXGXGXGXGXGXGXGXGXFXAXBXMXBXhXuX4X>X@Xs.*X*XXXt.a.I.#X#XI.c.q.u.q.q.0.0.0.%.g 9 4 M V j L @.h.u.x < , 2 z 8 * - - % O * = O i ",
"FXGXGXGXGXGXGXGXGXGXGXGXFXAXSXbXaXuXuX=X@X*XXXa.&X&X#XI.I.c.q.9.%.%. ...#.0.;.;.} q w V j V @.y.( z , = < 0 < - = = R 2.5 $ O i ",
"DXGXGXGXGXGXGXGXGXGXGXGXGXHXHXCXaXaX4X4X=X@XXX=XwX#XI.c.q.9.T P A B N S Y %.#.;.y.K 7 r h h  .J A t - = = = , $ 4 n.~.!.b.< @ e ",
"FXGXGXGXGXGXGXGXGXGXGXGXGXGXGXFXbXaX5X4X*Xa.&XwX&X@Xa.t.9.` ! P P P S S N H K  .;.1.N w w w S x s 1 - = - - % i b.~.M.M.!.n.O i ",
"FXGXGXGXGXGXGXGXGXGXGXGXGXGXGXGXDXvX5X3XXXXX=X&XI.a.a.9.9.` ~ ~ ~ Y Y H N M N L @.y.;.N w q d p 8 > - = = * k M.N.M.M.M.M.!.R e ",
"FXGXGXGXGXGXGXGXGXGXGXGXGXGXGXGXGXAX5X*XXX@X&X@X@Xa.q.9.q.q.u.u.q.q.0.%.Y H H  .#.y.;.V h q J p * ; , * > ) ~.M.M.M.M.M.M.~.N.o.",
"FXGXGXGXGXGXGXGXGXGXGXGXGXGXGXGXGXGXbX=X%X@X&X&X#XI.c.c.I.I.c.q.q.q.y.y.y.#...#.;.;.N a i a y.x < = @ u b.!.M.M.M.B.B.B.B.B.!.!.",
"AXHXHXHXGXGXGXGXGXGXGXGXGXGXGXGXGXSXgX4X%XXX@X@X@XI.I.I.I.c.y.0.#.#...#.;.%.K ..#.H 9 4 7 @.T.s @     < ) n.b.b.b.m.m.m.m.M.!.!.",
"mXCXCXAXSXDXFXHXHXGXGXGXGXGXGXFXBXaX:X*XoXXXp.a.D.a.a.q.q.9.#.Y Y H H H H H N N s 4 < - Z k.1.$ X       X & $ % % % % % = > 5 G ",
"vXBXAXBXMXMXmXmXmXMXDXHXSXCXmXgX4X3X*XoX.X|.p.s.s.s.[ ` T I U A x x c p e 9 0 5 = = = 9 M M $   @     X $ $ X   o   . . . . . < ",
"6XnXnXlXzXzXcXcXcXaXnXBXcXaX5X2X3X*X+X+X X|.' ' [ _ W U b b m m y 0 0 2 ; , % $ $ $ $ $ X . .         X O % $ X X X X o       4 "
};
